<?xml version="1.0" encoding="UTF-8"?>
<!DOCTYPE svg PUBLIC "-//W3C//DTD SVG 1.1//EN" "http://www.w3.org/Graphics/SVG/1.1/DTD/svg11.dtd">
<svg xmlns="http://www.w3.org/2000/svg" version="1.1" width="512px" height="512px" style="shape-rendering:geometricPrecision; text-rendering:geometricPrecision; image-rendering:optimizeQuality; fill-rule:evenodd; clip-rule:evenodd" xmlns:xlink="http://www.w3.org/1999/xlink">
<g><path style="opacity:0.047" fill="#13213e" d="M 478.5,117.5 C 477.5,116.167 476.5,116.167 475.5,117.5C 474.508,117.672 473.842,117.338 473.5,116.5C 474.833,116.167 474.833,115.833 473.5,115.5C 473.5,111.5 473.5,107.5 473.5,103.5C 474.833,101.5 474.833,99.5 473.5,97.5C 472.549,96.0813 472.216,94.4147 472.5,92.5C 473.644,91.1507 473.644,90.8174 472.5,91.5C 471.549,90.0813 471.216,88.4147 471.5,86.5C 472.833,85.8333 472.833,85.1667 471.5,84.5C 470.662,84.1583 470.328,83.4916 470.5,82.5C 471.833,81.8333 471.833,81.1667 470.5,80.5C 469.662,80.1583 469.328,79.4916 469.5,78.5C 470.833,77.8333 470.833,77.1667 469.5,76.5C 468.833,76.5 468.5,76.1667 468.5,75.5C 469.644,74.1507 469.644,73.8174 468.5,74.5C 467.662,74.1583 467.328,73.4916 467.5,72.5C 468.644,71.1507 468.644,70.8174 467.5,71.5C 466.662,71.1583 466.328,70.4916 466.5,69.5C 465.662,69.1583 465.328,68.4916 465.5,67.5C 466.833,67.1667 466.833,66.8333 465.5,66.5C 464.833,66.5 464.5,66.1667 464.5,65.5C 465.833,65.1667 465.833,64.8333 464.5,64.5C 463.833,64.5 463.5,64.1667 463.5,63.5C 464.833,63.1667 464.833,62.8333 463.5,62.5C 463.672,61.5084 463.338,60.8417 462.5,60.5C 462.5,59.8333 462.167,59.5 461.5,59.5C 460.833,59.5 460.5,59.1667 460.5,58.5C 461.833,58.1667 461.833,57.8333 460.5,57.5C 460.5,56.8333 460.167,56.5 459.5,56.5C 459.5,55.8333 459.167,55.5 458.5,55.5C 458.5,54.8333 458.167,54.5 457.5,54.5C 456.833,54.5 456.5,54.1667 456.5,53.5C 457.833,53.1667 457.833,52.8333 456.5,52.5C 456.5,51.8333 456.167,51.5 455.5,51.5C 455.5,50.8333 455.167,50.5 454.5,50.5C 454.167,49.1667 453.833,49.1667 453.5,50.5C 452.833,50.5 452.5,50.1667 452.5,49.5C 452.5,48.8333 452.167,48.5 451.5,48.5C 451.5,47.8333 451.167,47.5 450.5,47.5C 450.5,46.8333 450.167,46.5 449.5,46.5C 449.167,45.1667 448.833,45.1667 448.5,46.5C 447.833,46.5 447.5,46.1667 447.5,45.5C 447.5,44.8333 447.167,44.5 446.5,44.5C 446.158,43.6618 445.492,43.3284 444.5,43.5C 444.167,42.1667 443.833,42.1667 443.5,43.5C 442.508,43.6716 441.842,43.3382 441.5,42.5C 440.508,42.6716 439.842,42.3382 439.5,41.5C 438.508,41.6716 437.842,41.3382 437.5,40.5C 436.209,40.7373 435.209,40.404 434.5,39.5C 433.209,39.7373 432.209,39.404 431.5,38.5C 429.901,38.7678 428.568,38.4345 427.5,37.5C 425.585,37.7845 423.919,37.4511 422.5,36.5C 420.901,36.7678 419.568,36.4345 418.5,35.5C 416.833,34.1667 415.167,34.1667 413.5,35.5C 406.167,35.5 398.833,35.5 391.5,35.5C 388.551,34.2478 387.551,34.2478 388.5,35.5C 386.052,36.4731 383.385,36.8064 380.5,36.5C 379.791,35.596 378.791,35.2627 377.5,35.5C 375.143,35.6633 372.81,35.4966 370.5,35C 370.833,34.6667 371.167,34.3333 371.5,34C 368.456,33.6411 368.122,32.9745 370.5,32C 369.525,29.5883 370.192,27.5883 372.5,26C 369.183,25.5017 365.85,25.335 362.5,25.5C 372.964,23.557 383.63,22.057 394.5,21C 455.907,19.7328 486.907,49.8995 487.5,111.5C 487.167,114.167 486.833,116.833 486.5,119.5C 483.979,118.215 481.313,117.548 478.5,117.5 Z"/></g>
<g><path style="opacity:0.993" fill="#050506" d="M 388.5,35.5 C 389.5,35.5 390.5,35.5 391.5,35.5C 398.833,35.5 406.167,35.5 413.5,35.5C 415.167,35.5 416.833,35.5 418.5,35.5C 419.568,36.4345 420.901,36.7678 422.5,36.5C 423.919,37.4511 425.585,37.7845 427.5,37.5C 428.568,38.4345 429.901,38.7678 431.5,38.5C 432.209,39.404 433.209,39.7373 434.5,39.5C 435.209,40.404 436.209,40.7373 437.5,40.5C 437.842,41.3382 438.508,41.6716 439.5,41.5C 439.842,42.3382 440.508,42.6716 441.5,42.5C 441.842,43.3382 442.508,43.6716 443.5,43.5C 443.833,43.5 444.167,43.5 444.5,43.5C 444.842,44.3382 445.508,44.6716 446.5,44.5C 447.167,44.5 447.5,44.8333 447.5,45.5C 447.5,46.1667 447.833,46.5 448.5,46.5C 448.833,46.5 449.167,46.5 449.5,46.5C 450.167,46.5 450.5,46.8333 450.5,47.5C 451.167,47.5 451.5,47.8333 451.5,48.5C 452.167,48.5 452.5,48.8333 452.5,49.5C 452.5,50.1667 452.833,50.5 453.5,50.5C 453.833,50.5 454.167,50.5 454.5,50.5C 455.167,50.5 455.5,50.8333 455.5,51.5C 456.167,51.5 456.5,51.8333 456.5,52.5C 456.5,52.8333 456.5,53.1667 456.5,53.5C 456.5,54.1667 456.833,54.5 457.5,54.5C 458.167,54.5 458.5,54.8333 458.5,55.5C 459.167,55.5 459.5,55.8333 459.5,56.5C 460.167,56.5 460.5,56.8333 460.5,57.5C 460.5,57.8333 460.5,58.1667 460.5,58.5C 460.5,59.1667 460.833,59.5 461.5,59.5C 462.167,59.5 462.5,59.8333 462.5,60.5C 462.328,61.4916 462.662,62.1583 463.5,62.5C 463.5,62.8333 463.5,63.1667 463.5,63.5C 463.5,64.1667 463.833,64.5 464.5,64.5C 464.5,64.8333 464.5,65.1667 464.5,65.5C 464.5,66.1667 464.833,66.5 465.5,66.5C 465.5,66.8333 465.5,67.1667 465.5,67.5C 465.328,68.4916 465.662,69.1583 466.5,69.5C 466.328,70.4916 466.662,71.1583 467.5,71.5C 467.5,71.8333 467.5,72.1667 467.5,72.5C 467.328,73.4916 467.662,74.1583 468.5,74.5C 468.5,74.8333 468.5,75.1667 468.5,75.5C 468.5,76.1667 468.833,76.5 469.5,76.5C 469.5,77.1667 469.5,77.8333 469.5,78.5C 469.328,79.4916 469.662,80.1583 470.5,80.5C 470.5,81.1667 470.5,81.8333 470.5,82.5C 470.328,83.4916 470.662,84.1583 471.5,84.5C 471.5,85.1667 471.5,85.8333 471.5,86.5C 471.216,88.4147 471.549,90.0813 472.5,91.5C 472.5,91.8333 472.5,92.1667 472.5,92.5C 472.216,94.4147 472.549,96.0813 473.5,97.5C 473.5,99.5 473.5,101.5 473.5,103.5C 473.5,107.5 473.5,111.5 473.5,115.5C 473.5,115.833 473.5,116.167 473.5,116.5C 473.842,117.338 474.508,117.672 475.5,117.5C 476.5,117.5 477.5,117.5 478.5,117.5C 483.286,119.599 488.286,121.432 493.5,123C 496.473,124.224 497.14,126.224 495.5,129C 489.607,131.232 483.941,133.732 478.5,136.5C 477.209,136.263 476.209,136.596 475.5,137.5C 474.833,137.5 474.167,137.5 473.5,137.5C 472.235,138.514 471.569,140.014 471.5,142C 470.702,148.477 470.368,154.977 470.5,161.5C 470.5,164.5 470.5,167.5 470.5,170.5C 470.205,172.735 470.539,174.735 471.5,176.5C 471.5,177.5 471.5,178.5 471.5,179.5C 471.263,180.791 471.596,181.791 472.5,182.5C 472.328,183.492 472.662,184.158 473.5,184.5C 473.328,185.492 473.662,186.158 474.5,186.5C 474.328,187.492 474.662,188.158 475.5,188.5C 475.5,189.167 475.833,189.5 476.5,189.5C 476.328,190.492 476.662,191.158 477.5,191.5C 477.5,192.167 477.833,192.5 478.5,192.5C 478.5,193.167 478.833,193.5 479.5,193.5C 479.5,194.167 479.833,194.5 480.5,194.5C 480.5,195.167 480.833,195.5 481.5,195.5C 486.443,201.438 492.11,206.772 498.5,211.5C 500.218,216.792 498.218,219.125 492.5,218.5C 486.35,217.782 480.35,216.449 474.5,214.5C 474.158,213.662 473.492,213.328 472.5,213.5C 471.833,212.167 471.167,212.167 470.5,213.5C 469.833,213.5 469.5,213.833 469.5,214.5C 468.662,214.842 468.328,215.508 468.5,216.5C 468.5,216.833 468.5,217.167 468.5,217.5C 467.833,217.5 467.5,217.833 467.5,218.5C 466.517,222.298 466.183,226.298 466.5,230.5C 466.5,230.833 466.5,231.167 466.5,231.5C 464.868,238.937 464.201,246.604 464.5,254.5C 463.046,263.293 462.379,272.293 462.5,281.5C 462.5,283.167 462.5,284.833 462.5,286.5C 461.539,288.265 461.205,290.265 461.5,292.5C 460.518,295.962 460.185,299.629 460.5,303.5C 459.532,305.607 459.198,307.941 459.5,310.5C 459.5,311.167 459.5,311.833 459.5,312.5C 458.549,313.919 458.216,315.585 458.5,317.5C 458.5,317.833 458.5,318.167 458.5,318.5C 457.566,319.568 457.232,320.901 457.5,322.5C 456.539,324.265 456.205,326.265 456.5,328.5C 455.549,329.919 455.216,331.585 455.5,333.5C 454.549,334.919 454.216,336.585 454.5,338.5C 454.5,338.833 454.5,339.167 454.5,339.5C 453.596,340.209 453.263,341.209 453.5,342.5C 452.566,343.568 452.232,344.901 452.5,346.5C 451.596,347.209 451.263,348.209 451.5,349.5C 451.5,349.833 451.5,350.167 451.5,350.5C 450.596,351.209 450.263,352.209 450.5,353.5C 449.596,354.209 449.263,355.209 449.5,356.5C 448.596,357.209 448.263,358.209 448.5,359.5C 447.596,360.209 447.263,361.209 447.5,362.5C 446.662,362.842 446.328,363.508 446.5,364.5C 446.5,364.833 446.5,365.167 446.5,365.5C 445.662,365.842 445.328,366.508 445.5,367.5C 444.662,367.842 444.328,368.508 444.5,369.5C 444.5,369.833 444.5,370.167 444.5,370.5C 443.662,370.842 443.328,371.508 443.5,372.5C 442.662,372.842 442.328,373.508 442.5,374.5C 441.662,374.842 441.328,375.508 441.5,376.5C 440.662,376.842 440.328,377.508 440.5,378.5C 439.662,378.842 439.328,379.508 439.5,380.5C 439.5,380.833 439.5,381.167 439.5,381.5C 438.662,381.842 438.328,382.508 438.5,383.5C 437.833,383.5 437.5,383.833 437.5,384.5C 436.833,384.5 436.5,384.833 436.5,385.5C 436.5,385.833 436.5,386.167 436.5,386.5C 435.833,386.5 435.5,386.833 435.5,387.5C 435.5,387.833 435.5,388.167 435.5,388.5C 434.662,388.842 434.328,389.508 434.5,390.5C 433.833,390.5 433.5,390.833 433.5,391.5C 432.662,391.842 432.328,392.508 432.5,393.5C 431.833,393.5 431.5,393.833 431.5,394.5C 430.662,394.842 430.328,395.508 430.5,396.5C 429.833,396.5 429.5,396.833 429.5,397.5C 428.833,397.5 428.5,397.833 428.5,398.5C 427.833,398.5 427.5,398.833 427.5,399.5C 427.5,399.833 427.5,400.167 427.5,400.5C 426.833,400.5 426.5,400.833 426.5,401.5C 425.833,401.5 425.5,401.833 425.5,402.5C 424.833,402.5 424.5,402.833 424.5,403.5C 424.5,403.833 424.5,404.167 424.5,404.5C 423.833,404.5 423.5,404.833 423.5,405.5C 422.833,405.5 422.5,405.833 422.5,406.5C 421.833,406.5 421.5,406.833 421.5,407.5C 420.833,407.5 420.5,407.833 420.5,408.5C 419.833,408.5 419.5,408.833 419.5,409.5C 419.5,409.833 419.5,410.167 419.5,410.5C 418.833,410.5 418.5,410.833 418.5,411.5C 417.833,411.5 417.5,411.833 417.5,412.5C 416.833,412.5 416.5,412.833 416.5,413.5C 415.833,413.5 415.5,413.833 415.5,414.5C 414.833,414.5 414.5,414.833 414.5,415.5C 413.833,415.5 413.5,415.833 413.5,416.5C 412.833,416.5 412.5,416.833 412.5,417.5C 411.833,417.5 411.5,417.833 411.5,418.5C 410.833,418.5 410.5,418.833 410.5,419.5C 409.833,419.5 409.5,419.833 409.5,420.5C 408.833,420.5 408.5,420.833 408.5,421.5C 408.167,421.5 407.833,421.5 407.5,421.5C 406.833,421.5 406.5,421.833 406.5,422.5C 405.833,422.5 405.5,422.833 405.5,423.5C 404.833,423.5 404.5,423.833 404.5,424.5C 403.833,424.5 403.5,424.833 403.5,425.5C 402.833,425.5 402.5,425.833 402.5,426.5C 401.508,426.328 400.842,426.662 400.5,427.5C 399.833,427.5 399.5,427.833 399.5,428.5C 398.833,428.5 398.5,428.833 398.5,429.5C 398.167,429.5 397.833,429.5 397.5,429.5C 396.833,429.5 396.5,429.833 396.5,430.5C 395.833,430.5 395.5,430.833 395.5,431.5C 395.167,431.5 394.833,431.5 394.5,431.5C 393.833,431.5 393.5,431.833 393.5,432.5C 392.833,432.5 392.5,432.833 392.5,433.5C 392.167,433.5 391.833,433.5 391.5,433.5C 390.833,433.5 390.5,433.833 390.5,434.5C 389.833,434.5 389.5,434.833 389.5,435.5C 389.167,435.5 388.833,435.5 388.5,435.5C 387.508,435.328 386.842,435.662 386.5,436.5C 385.833,436.5 385.5,436.833 385.5,437.5C 384.833,437.5 384.5,437.833 384.5,438.5C 383.508,438.328 382.842,438.662 382.5,439.5C 382.167,439.5 381.833,439.5 381.5,439.5C 380.508,439.328 379.842,439.662 379.5,440.5C 378.833,440.5 378.5,440.833 378.5,441.5C 378.167,441.5 377.833,441.5 377.5,441.5C 376.833,441.5 376.5,441.833 376.5,442.5C 376.167,442.5 375.833,442.5 375.5,442.5C 374.833,442.5 374.5,442.833 374.5,443.5C 374.167,443.5 373.833,443.5 373.5,443.5C 372.508,443.328 371.842,443.662 371.5,444.5C 370.833,444.5 370.5,444.833 370.5,445.5C 370.167,445.5 369.833,445.5 369.5,445.5C 368.508,445.328 367.842,445.662 367.5,446.5C 366.508,446.328 365.842,446.662 365.5,447.5C 365.167,447.5 364.833,447.5 364.5,447.5C 363.508,447.328 362.842,447.662 362.5,448.5C 361.508,448.328 360.842,448.662 360.5,449.5C 360.167,449.5 359.833,449.5 359.5,449.5C 358.508,449.328 357.842,449.662 357.5,450.5C 356.209,450.263 355.209,450.596 354.5,451.5C 353.209,451.263 352.209,451.596 351.5,452.5C 350.209,452.263 349.209,452.596 348.5,453.5C 347.209,453.263 346.209,453.596 345.5,454.5C 344.209,454.263 343.209,454.596 342.5,455.5C 342.167,455.5 341.833,455.5 341.5,455.5C 340.209,455.263 339.209,455.596 338.5,456.5C 338.167,456.5 337.833,456.5 337.5,456.5C 336.209,456.263 335.209,456.596 334.5,457.5C 332.901,457.232 331.568,457.566 330.5,458.5C 328.585,458.216 326.919,458.549 325.5,459.5C 323.585,459.216 321.919,459.549 320.5,460.5C 318.265,460.205 316.265,460.539 314.5,461.5C 312.585,461.216 310.919,461.549 309.5,462.5C 309.167,462.5 308.833,462.5 308.5,462.5C 306.265,462.205 304.265,462.539 302.5,463.5C 302.167,463.5 301.833,463.5 301.5,463.5C 298.615,463.194 295.948,463.527 293.5,464.5C 293.167,464.5 292.833,464.5 292.5,464.5C 288.958,464.187 285.625,464.521 282.5,465.5C 281.5,465.5 280.5,465.5 279.5,465.5C 262.5,465.5 245.5,465.5 228.5,465.5C 226.833,465.5 225.167,465.5 223.5,465.5C 220.713,464.523 217.713,464.19 214.5,464.5C 214.167,464.5 213.833,464.5 213.5,464.5C 211.052,463.527 208.385,463.194 205.5,463.5C 204.5,463.5 203.5,463.5 202.5,463.5C 201.432,462.566 200.099,462.232 198.5,462.5C 198.167,462.5 197.833,462.5 197.5,462.5C 195.735,461.539 193.735,461.205 191.5,461.5C 191.167,461.5 190.833,461.5 190.5,461.5C 189.432,460.566 188.099,460.232 186.5,460.5C 186.167,460.5 185.833,460.5 185.5,460.5C 184.432,459.566 183.099,459.232 181.5,459.5C 180.833,459.5 180.167,459.5 179.5,459.5C 178.791,458.596 177.791,458.263 176.5,458.5C 175.833,458.5 175.167,458.5 174.5,458.5C 174.158,457.662 173.492,457.328 172.5,457.5C 171.833,457.5 171.167,457.5 170.5,457.5C 170.158,456.662 169.492,456.328 168.5,456.5C 168.167,456.5 167.833,456.5 167.5,456.5C 166.791,455.596 165.791,455.263 164.5,455.5C 163.833,455.5 163.167,455.5 162.5,455.5C 162.158,454.662 161.492,454.328 160.5,454.5C 160.167,454.5 159.833,454.5 159.5,454.5C 159.158,453.662 158.492,453.328 157.5,453.5C 156.791,452.596 155.791,452.263 154.5,452.5C 154.167,452.5 153.833,452.5 153.5,452.5C 153.158,451.662 152.492,451.328 151.5,451.5C 151.167,451.5 150.833,451.5 150.5,451.5C 150.158,450.662 149.492,450.328 148.5,450.5C 148.167,450.5 147.833,450.5 147.5,450.5C 147.158,449.662 146.492,449.328 145.5,449.5C 145.167,449.5 144.833,449.5 144.5,449.5C 144.5,448.833 144.167,448.5 143.5,448.5C 143.167,448.5 142.833,448.5 142.5,448.5C 142.158,447.662 141.492,447.328 140.5,447.5C 140.167,447.5 139.833,447.5 139.5,447.5C 139.5,446.833 139.167,446.5 138.5,446.5C 138.167,446.5 137.833,446.5 137.5,446.5C 137.158,445.662 136.492,445.328 135.5,445.5C 135.158,444.662 134.492,444.328 133.5,444.5C 133.167,444.5 132.833,444.5 132.5,444.5C 132.5,443.833 132.167,443.5 131.5,443.5C 130.833,443.5 130.167,443.5 129.5,443.5C 129.158,442.662 128.492,442.328 127.5,442.5C 127.158,441.662 126.492,441.328 125.5,441.5C 125.158,440.662 124.492,440.328 123.5,440.5C 123.158,439.662 122.492,439.328 121.5,439.5C 121.5,438.833 121.167,438.5 120.5,438.5C 120.5,437.833 120.167,437.5 119.5,437.5C 119.167,437.5 118.833,437.5 118.5,437.5C 118.5,436.833 118.167,436.5 117.5,436.5C 117.158,435.662 116.492,435.328 115.5,435.5C 115.167,435.5 114.833,435.5 114.5,435.5C 114.158,434.662 113.492,434.328 112.5,434.5C 112.5,433.833 112.167,433.5 111.5,433.5C 111.5,432.833 111.167,432.5 110.5,432.5C 110.167,432.5 109.833,432.5 109.5,432.5C 109.5,431.833 109.167,431.5 108.5,431.5C 108.5,430.833 108.167,430.5 107.5,430.5C 107.167,430.5 106.833,430.5 106.5,430.5C 106.5,429.833 106.167,429.5 105.5,429.5C 105.5,428.833 105.167,428.5 104.5,428.5C 104.167,428.5 103.833,428.5 103.5,428.5C 103.5,427.833 103.167,427.5 102.5,427.5C 102.5,426.833 102.167,426.5 101.5,426.5C 101.167,426.5 100.833,426.5 100.5,426.5C 100.5,425.833 100.167,425.5 99.5,425.5C 99.5,424.833 99.1667,424.5 98.5,424.5C 98.1667,424.5 97.8333,424.5 97.5,424.5C 97.5,423.833 97.1667,423.5 96.5,423.5C 96.5,422.833 96.1667,422.5 95.5,422.5C 95.5,421.833 95.1667,421.5 94.5,421.5C 94.1667,421.5 93.8333,421.5 93.5,421.5C 93.5,420.833 93.1667,420.5 92.5,420.5C 92.5,419.833 92.1667,419.5 91.5,419.5C 91.5,418.833 91.1667,418.5 90.5,418.5C 90.1667,417.5 89.5,416.833 88.5,416.5C 88.1667,416.5 87.8333,416.5 87.5,416.5C 87.5,415.833 87.1667,415.5 86.5,415.5C 86.5,414.833 86.1667,414.5 85.5,414.5C 85.5,413.833 85.1667,413.5 84.5,413.5C 84.5,412.833 84.1667,412.5 83.5,412.5C 83.5,411.833 83.1667,411.5 82.5,411.5C 82.5,410.833 82.1667,410.5 81.5,410.5C 80.8333,409.167 79.8333,408.167 78.5,407.5C 78.1667,407.5 77.8333,407.5 77.5,407.5C 77.5,406.833 77.1667,406.5 76.5,406.5C 76.5,405.833 76.1667,405.5 75.5,405.5C 75.5,404.833 75.1667,404.5 74.5,404.5C 74.5,404.167 74.5,403.833 74.5,403.5C 74.1667,402.5 73.5,401.833 72.5,401.5C 72.5,400.833 72.1667,400.5 71.5,400.5C 71.5,399.833 71.1667,399.5 70.5,399.5C 70.5,398.833 70.1667,398.5 69.5,398.5C 69.5,397.833 69.1667,397.5 68.5,397.5C 68.5,396.833 68.1667,396.5 67.5,396.5C 67.5,395.833 67.1667,395.5 66.5,395.5C 66.5,394.833 66.1667,394.5 65.5,394.5C 65.5,394.167 65.5,393.833 65.5,393.5C 65.5,392.833 65.1667,392.5 64.5,392.5C 64.5,391.833 64.1667,391.5 63.5,391.5C 63.5,390.833 63.1667,390.5 62.5,390.5C 62.5,389.833 62.1667,389.5 61.5,389.5C 61.5,389.167 61.5,388.833 61.5,388.5C 61.5,387.833 61.1667,387.5 60.5,387.5C 60.5,386.833 60.1667,386.5 59.5,386.5C 59.5,385.833 59.1667,385.5 58.5,385.5C 58.5,385.167 58.5,384.833 58.5,384.5C 58.5,383.833 58.1667,383.5 57.5,383.5C 57.5,382.833 57.1667,382.5 56.5,382.5C 56.5,382.167 56.5,381.833 56.5,381.5C 56.5,380.833 56.1667,380.5 55.5,380.5C 55.5,379.833 55.1667,379.5 54.5,379.5C 54.5,378.833 54.1667,378.5 53.5,378.5C 53.5,378.167 53.5,377.833 53.5,377.5C 53.5,376.833 53.1667,376.5 52.5,376.5C 52.5,375.833 52.1667,375.5 51.5,375.5C 51.6716,374.508 51.3382,373.842 50.5,373.5C 50.5,373.167 50.5,372.833 50.5,372.5C 50.5,371.833 50.1667,371.5 49.5,371.5C 49.5,370.833 49.1667,370.5 48.5,370.5C 48.5,370.167 48.5,369.833 48.5,369.5C 48.5,368.833 48.1667,368.5 47.5,368.5C 47.5,368.167 47.5,367.833 47.5,367.5C 47.5,366.833 47.1667,366.5 46.5,366.5C 46.5,365.833 46.1667,365.5 45.5,365.5C 45.5,365.167 45.5,364.833 45.5,364.5C 45.6716,363.508 45.3382,362.842 44.5,362.5C 44.6716,361.508 44.3382,360.842 43.5,360.5C 43.5,359.833 43.1667,359.5 42.5,359.5C 42.5,359.167 42.5,358.833 42.5,358.5C 42.5,357.833 42.1667,357.5 41.5,357.5C 41.5,357.167 41.5,356.833 41.5,356.5C 41.5,355.833 41.1667,355.5 40.5,355.5C 40.5,355.167 40.5,354.833 40.5,354.5C 40.6716,353.508 40.3382,352.842 39.5,352.5C 39.6716,351.508 39.3382,350.842 38.5,350.5C 38.6716,349.508 38.3382,348.842 37.5,348.5C 37.5,348.167 37.5,347.833 37.5,347.5C 37.5,346.833 37.1667,346.5 36.5,346.5C 36.5,346.167 36.5,345.833 36.5,345.5C 36.6716,344.508 36.3382,343.842 35.5,343.5C 35.6716,342.508 35.3382,341.842 34.5,341.5C 34.5,341.167 34.5,340.833 34.5,340.5C 34.6716,339.508 34.3382,338.842 33.5,338.5C 33.5,338.167 33.5,337.833 33.5,337.5C 33.6716,336.508 33.3382,335.842 32.5,335.5C 32.7373,334.209 32.404,333.209 31.5,332.5C 31.7373,331.209 31.404,330.209 30.5,329.5C 30.7373,328.209 30.404,327.209 29.5,326.5C 29.5,326.167 29.5,325.833 29.5,325.5C 29.7373,324.209 29.404,323.209 28.5,322.5C 28.7678,320.901 28.4345,319.568 27.5,318.5C 27.7678,316.901 27.4345,315.568 26.5,314.5C 26.7678,312.901 26.4345,311.568 25.5,310.5C 25.5,309.833 25.5,309.167 25.5,308.5C 25.7373,307.209 25.404,306.209 24.5,305.5C 24.5,304.833 24.5,304.167 24.5,303.5C 24.8016,300.941 24.4682,298.607 23.5,296.5C 23.8128,292.958 23.4794,289.625 22.5,286.5C 22.5,274.833 22.5,263.167 22.5,251.5C 22.5,250.833 22.5,250.167 22.5,249.5C 23.4682,247.393 23.8016,245.059 23.5,242.5C 23.5,242.167 23.5,241.833 23.5,241.5C 24.4682,239.393 24.8016,237.059 24.5,234.5C 24.5,233.833 24.5,233.167 24.5,232.5C 25.404,231.791 25.7373,230.791 25.5,229.5C 25.5,228.5 25.5,227.5 25.5,226.5C 26.3382,226.158 26.6716,225.492 26.5,224.5C 26.5,223.833 26.5,223.167 26.5,222.5C 27.404,221.791 27.7373,220.791 27.5,219.5C 27.5,218.833 27.5,218.167 27.5,217.5C 28.3382,217.158 28.6716,216.492 28.5,215.5C 28.5,215.167 28.5,214.833 28.5,214.5C 29.404,213.791 29.7373,212.791 29.5,211.5C 29.5,211.167 29.5,210.833 29.5,210.5C 30.3382,210.158 30.6716,209.492 30.5,208.5C 30.5,208.167 30.5,207.833 30.5,207.5C 31.3382,207.158 31.6716,206.492 31.5,205.5C 31.5,204.833 31.5,204.167 31.5,203.5C 32.3382,203.158 32.6716,202.492 32.5,201.5C 32.5,201.167 32.5,200.833 32.5,200.5C 33.3382,200.158 33.6716,199.492 33.5,198.5C 33.5,198.167 33.5,197.833 33.5,197.5C 34.3382,197.158 34.6716,196.492 34.5,195.5C 34.5,195.167 34.5,194.833 34.5,194.5C 35.1667,194.5 35.5,194.167 35.5,193.5C 35.5,193.167 35.5,192.833 35.5,192.5C 36.3382,192.158 36.6716,191.492 36.5,190.5C 36.5,190.167 36.5,189.833 36.5,189.5C 37.1667,189.5 37.5,189.167 37.5,188.5C 37.5,188.167 37.5,187.833 37.5,187.5C 38.3382,187.158 38.6716,186.492 38.5,185.5C 38.5,185.167 38.5,184.833 38.5,184.5C 39.1667,184.5 39.5,184.167 39.5,183.5C 39.5,183.167 39.5,182.833 39.5,182.5C 40.3382,182.158 40.6716,181.492 40.5,180.5C 41.3382,180.158 41.6716,179.492 41.5,178.5C 42.3382,178.158 42.6716,177.492 42.5,176.5C 42.5,176.167 42.5,175.833 42.5,175.5C 43.1667,175.5 43.5,175.167 43.5,174.5C 43.5,174.167 43.5,173.833 43.5,173.5C 44.1667,173.5 44.5,173.167 44.5,172.5C 44.5,172.167 44.5,171.833 44.5,171.5C 45.1667,171.5 45.5,171.167 45.5,170.5C 45.5,170.167 45.5,169.833 45.5,169.5C 46.1667,169.5 46.5,169.167 46.5,168.5C 46.5,168.167 46.5,167.833 46.5,167.5C 47.1667,167.5 47.5,167.167 47.5,166.5C 48.3382,166.158 48.6716,165.492 48.5,164.5C 49.3382,164.158 49.6716,163.492 49.5,162.5C 49.5,162.167 49.5,161.833 49.5,161.5C 50.1667,161.5 50.5,161.167 50.5,160.5C 51.1667,160.5 51.5,160.167 51.5,159.5C 51.5,159.167 51.5,158.833 51.5,158.5C 52.1667,158.5 52.5,158.167 52.5,157.5C 52.5,157.167 52.5,156.833 52.5,156.5C 53.1667,156.5 53.5,156.167 53.5,155.5C 54.1667,155.5 54.5,155.167 54.5,154.5C 54.5,154.167 54.5,153.833 54.5,153.5C 55.3382,153.158 55.6716,152.492 55.5,151.5C 56.1667,151.5 56.5,151.167 56.5,150.5C 57.1667,150.5 57.5,150.167 57.5,149.5C 58.1667,149.5 58.5,149.167 58.5,148.5C 58.5,148.167 58.5,147.833 58.5,147.5C 59.1667,147.5 59.5,147.167 59.5,146.5C 60.1667,146.5 60.5,146.167 60.5,145.5C 60.5,145.167 60.5,144.833 60.5,144.5C 61.1667,144.5 61.5,144.167 61.5,143.5C 62.1667,143.5 62.5,143.167 62.5,142.5C 63.1667,142.5 63.5,142.167 63.5,141.5C 63.5,141.167 63.5,140.833 63.5,140.5C 64.1667,140.5 64.5,140.167 64.5,139.5C 65.1667,139.5 65.5,139.167 65.5,138.5C 66.1667,138.5 66.5,138.167 66.5,137.5C 67.1667,137.5 67.5,137.167 67.5,136.5C 67.5,136.167 67.5,135.833 67.5,135.5C 68.1667,135.5 68.5,135.167 68.5,134.5C 69.1667,134.5 69.5,134.167 69.5,133.5C 70.1667,133.5 70.5,133.167 70.5,132.5C 71.5,132.167 72.1667,131.5 72.5,130.5C 72.5,130.167 72.5,129.833 72.5,129.5C 73.1667,129.5 73.5,129.167 73.5,128.5C 74.1667,128.5 74.5,128.167 74.5,127.5C 75.1667,127.5 75.5,127.167 75.5,126.5C 76.1667,126.5 76.5,126.167 76.5,125.5C 77.1667,125.5 77.5,125.167 77.5,124.5C 78.1667,124.5 78.5,124.167 78.5,123.5C 79.1667,123.5 79.5,123.167 79.5,122.5C 80.1667,122.5 80.5,122.167 80.5,121.5C 81.1667,121.5 81.5,121.167 81.5,120.5C 82.1667,120.5 82.5,120.167 82.5,119.5C 83.1667,119.5 83.5,119.167 83.5,118.5C 84.1667,118.5 84.5,118.167 84.5,117.5C 85.1667,117.5 85.5,117.167 85.5,116.5C 85.8333,116.5 86.1667,116.5 86.5,116.5C 87.5,116.167 88.1667,115.5 88.5,114.5C 89.1667,114.5 89.5,114.167 89.5,113.5C 90.1667,113.5 90.5,113.167 90.5,112.5C 91.1667,112.5 91.5,112.167 91.5,111.5C 91.8333,111.5 92.1667,111.5 92.5,111.5C 93.5,111.167 94.1667,110.5 94.5,109.5C 95.1667,109.5 95.5,109.167 95.5,108.5C 96.1667,108.5 96.5,108.167 96.5,107.5C 96.8333,107.5 97.1667,107.5 97.5,107.5C 98.1667,107.5 98.5,107.167 98.5,106.5C 99.1667,106.5 99.5,106.167 99.5,105.5C 100.167,105.5 100.5,105.167 100.5,104.5C 100.833,104.5 101.167,104.5 101.5,104.5C 102.167,104.5 102.5,104.167 102.5,103.5C 103.167,103.5 103.5,103.167 103.5,102.5C 103.833,102.5 104.167,102.5 104.5,102.5C 105.167,102.5 105.5,102.167 105.5,101.5C 106.167,101.5 106.5,101.167 106.5,100.5C 106.833,100.5 107.167,100.5 107.5,100.5C 108.167,100.5 108.5,100.167 108.5,99.5C 109.167,99.5 109.5,99.1667 109.5,98.5C 109.833,98.5 110.167,98.5 110.5,98.5C 111.167,98.5 111.5,98.1667 111.5,97.5C 112.167,97.5 112.5,97.1667 112.5,96.5C 112.833,96.5 113.167,96.5 113.5,96.5C 114.492,96.6716 115.158,96.3382 115.5,95.5C 116.167,95.5 116.5,95.1667 116.5,94.5C 117.167,94.5 117.5,94.1667 117.5,93.5C 117.833,93.5 118.167,93.5 118.5,93.5C 119.492,93.6716 120.158,93.3382 120.5,92.5C 121.167,92.5 121.5,92.1667 121.5,91.5C 121.833,91.5 122.167,91.5 122.5,91.5C 123.167,91.5 123.5,91.1667 123.5,90.5C 124.167,90.5 124.5,90.1667 124.5,89.5C 124.833,89.5 125.167,89.5 125.5,89.5C 126.492,89.6716 127.158,89.3382 127.5,88.5C 128.492,88.6716 129.158,88.3382 129.5,87.5C 130.492,87.6716 131.158,87.3382 131.5,86.5C 132.492,86.6716 133.158,86.3382 133.5,85.5C 134.492,85.6716 135.158,85.3382 135.5,84.5C 136.492,84.6716 137.158,84.3382 137.5,83.5C 138.492,83.6716 139.158,83.3382 139.5,82.5C 140.492,82.6716 141.158,82.3382 141.5,81.5C 142.492,81.6716 143.158,81.3382 143.5,80.5C 143.833,80.5 144.167,80.5 144.5,80.5C 145.492,80.6716 146.158,80.3382 146.5,79.5C 147.492,79.6716 148.158,79.3382 148.5,78.5C 148.833,78.5 149.167,78.5 149.5,78.5C 150.167,78.5 150.5,78.1667 150.5,77.5C 150.833,77.5 151.167,77.5 151.5,77.5C 152.492,77.6716 153.158,77.3382 153.5,76.5C 153.833,76.5 154.167,76.5 154.5,76.5C 155.167,76.5 155.5,76.1667 155.5,75.5C 155.833,75.5 156.167,75.5 156.5,75.5C 157.492,75.6716 158.158,75.3382 158.5,74.5C 158.833,74.5 159.167,74.5 159.5,74.5C 160.492,74.6716 161.158,74.3382 161.5,73.5C 161.833,73.5 162.167,73.5 162.5,73.5C 163.492,73.6716 164.158,73.3382 164.5,72.5C 164.833,72.5 165.167,72.5 165.5,72.5C 166.492,72.6716 167.158,72.3382 167.5,71.5C 167.833,71.5 168.167,71.5 168.5,71.5C 169.492,71.6716 170.158,71.3382 170.5,70.5C 170.833,70.5 171.167,70.5 171.5,70.5C 172.492,70.6716 173.158,70.3382 173.5,69.5C 173.833,69.5 174.167,69.5 174.5,69.5C 175.492,69.6716 176.158,69.3382 176.5,68.5C 177.167,68.5 177.833,68.5 178.5,68.5C 179.492,68.6716 180.158,68.3382 180.5,67.5C 180.833,67.5 181.167,67.5 181.5,67.5C 183.099,67.7678 184.432,67.4345 185.5,66.5C 186.492,66.6716 187.158,66.3382 187.5,65.5C 188.167,65.5 188.833,65.5 189.5,65.5C 191.099,65.7678 192.432,65.4345 193.5,64.5C 195.099,64.7678 196.432,64.4345 197.5,63.5C 198.791,63.7373 199.791,63.404 200.5,62.5C 201.167,62.5 201.833,62.5 202.5,62.5C 203.492,62.6716 204.158,62.3382 204.5,61.5C 205.167,61.5 205.833,61.5 206.5,61.5C 208.099,61.7678 209.432,61.4345 210.5,60.5C 210.833,60.5 211.167,60.5 211.5,60.5C 213.099,60.7678 214.432,60.4345 215.5,59.5C 215.833,59.5 216.167,59.5 216.5,59.5C 218.415,59.7845 220.081,59.4511 221.5,58.5C 221.833,58.5 222.167,58.5 222.5,58.5C 224.415,58.7845 226.081,58.4511 227.5,57.5C 227.833,57.5 228.167,57.5 228.5,57.5C 230.415,57.7845 232.081,57.4511 233.5,56.5C 234.167,56.5 234.833,56.5 235.5,56.5C 236.791,56.7373 237.791,56.404 238.5,55.5C 239.5,55.5 240.5,55.5 241.5,55.5C 243.735,55.7947 245.735,55.4614 247.5,54.5C 249.735,54.7947 251.735,54.4614 253.5,53.5C 255.415,53.7845 257.081,53.4511 258.5,52.5C 259.167,52.5 259.833,52.5 260.5,52.5C 262.735,52.7947 264.735,52.4614 266.5,51.5C 267.167,51.5 267.833,51.5 268.5,51.5C 271.713,51.81 274.713,51.4767 277.5,50.5C 280.385,50.8064 283.052,50.4731 285.5,49.5C 289.042,49.8128 292.375,49.4794 295.5,48.5C 297.735,48.7947 299.735,48.4614 301.5,47.5C 301.833,47.5 302.167,47.5 302.5,47.5C 305.059,47.8016 307.393,47.4682 309.5,46.5C 309.833,46.5 310.167,46.5 310.5,46.5C 312.735,46.7947 314.735,46.4614 316.5,45.5C 316.833,45.5 317.167,45.5 317.5,45.5C 319.735,45.7947 321.735,45.4614 323.5,44.5C 323.833,44.5 324.167,44.5 324.5,44.5C 326.735,44.7947 328.735,44.4614 330.5,43.5C 330.833,43.5 331.167,43.5 331.5,43.5C 333.621,43.6747 335.621,43.3414 337.5,42.5C 338.167,42.5 338.833,42.5 339.5,42.5C 341.099,42.7678 342.432,42.4345 343.5,41.5C 344.5,41.5 345.5,41.5 346.5,41.5C 348.735,41.7947 350.735,41.4614 352.5,40.5C 353.959,40.5674 355.292,40.2341 356.5,39.5C 357.167,39.5 357.833,39.5 358.5,39.5C 360.735,39.7947 362.735,39.4614 364.5,38.5C 366.735,38.7947 368.735,38.4614 370.5,37.5C 371.167,37.5 371.833,37.5 372.5,37.5C 374.735,37.7947 376.735,37.4614 378.5,36.5C 379.167,36.5 379.833,36.5 380.5,36.5C 383.385,36.8064 386.052,36.4731 388.5,35.5 Z"/></g>
<g><path style="opacity:1" fill="#142240" d="M 442.5,106.5 C 443.738,106.19 443.738,105.69 442.5,105C 440.22,104.767 438.22,103.934 436.5,102.5C 422.513,84.2051 408.18,69.5385 393.5,58.5C 394.025,57.8076 394.692,57.3076 395.5,57C 391.472,56.7876 387.639,56.9543 384,57.5C 383.535,56.0692 382.701,54.9025 381.5,54C 377.469,53.9278 373.636,53.0944 370,51.5C 365.805,52.3098 361.305,51.9765 356.5,50.5C 342.795,51.1955 329.129,52.1955 315.5,53.5C 314.304,53.1543 314.304,52.6543 315.5,52C 317.167,51.6667 318.833,51.3333 320.5,51C 319.552,50.5172 318.552,50.3505 317.5,50.5C 340.943,46.4415 364.609,42.9415 388.5,40C 444.578,33.9096 471.578,59.0763 469.5,115.5C 460.216,113.072 451.216,110.072 442.5,106.5 Z"/></g>
<g><path style="opacity:0.055" fill="#132a4f" d="M 362.5,25.5 C 365.85,25.335 369.183,25.5017 372.5,26C 370.192,27.5883 369.525,29.5883 370.5,32C 368.122,32.9745 368.456,33.6411 371.5,34C 371.167,34.3333 370.833,34.6667 370.5,35C 372.81,35.4966 375.143,35.6633 377.5,35.5C 377.5,36.1667 377.833,36.5 378.5,36.5C 376.735,37.4614 374.735,37.7947 372.5,37.5C 370.952,36.266 370.285,36.266 370.5,37.5C 368.735,38.4614 366.735,38.7947 364.5,38.5C 362.735,39.4614 360.735,39.7947 358.5,39.5C 357.833,38.1667 357.167,38.1667 356.5,39.5C 355.292,40.2341 353.959,40.5674 352.5,40.5C 350.735,41.4614 348.735,41.7947 346.5,41.5C 345.5,40.1667 344.5,40.1667 343.5,41.5C 342.432,42.4345 341.099,42.7678 339.5,42.5C 338.833,41.1667 338.167,41.1667 337.5,42.5C 335.621,43.3414 333.621,43.6747 331.5,43.5C 330.151,42.3559 329.817,42.3559 330.5,43.5C 328.735,44.4614 326.735,44.7947 324.5,44.5C 323.151,43.3559 322.817,43.3559 323.5,44.5C 321.735,45.4614 319.735,45.7947 317.5,45.5C 314.857,44.4931 314.523,44.4931 316.5,45.5C 314.735,46.4614 312.735,46.7947 310.5,46.5C 307.857,45.4931 307.523,45.4931 309.5,46.5C 307.393,47.4682 305.059,47.8016 302.5,47.5C 299.857,46.4931 299.523,46.4931 301.5,47.5C 299.735,48.4614 297.735,48.7947 295.5,48.5C 292.375,49.4794 289.042,49.8128 285.5,49.5C 283.052,50.4731 280.385,50.8064 277.5,50.5C 274.713,51.4767 271.713,51.81 268.5,51.5C 266.952,50.266 266.285,50.266 266.5,51.5C 264.735,52.4614 262.735,52.7947 260.5,52.5C 259.833,51.1667 259.167,51.1667 258.5,52.5C 257.081,53.4511 255.415,53.7845 253.5,53.5C 251.735,54.4614 249.735,54.7947 247.5,54.5C 245.735,55.4614 243.735,55.7947 241.5,55.5C 240.5,54.1667 239.5,54.1667 238.5,55.5C 237.791,56.404 236.791,56.7373 235.5,56.5C 233.952,55.266 233.285,55.266 233.5,56.5C 232.081,57.4511 230.415,57.7845 228.5,57.5C 227.151,56.3559 226.817,56.3559 227.5,57.5C 226.081,58.4511 224.415,58.7845 222.5,58.5C 219.857,57.4931 219.523,57.4931 221.5,58.5C 220.081,59.4511 218.415,59.7845 216.5,59.5C 215.151,58.3559 214.817,58.3559 215.5,59.5C 214.432,60.4345 213.099,60.7678 211.5,60.5C 210.151,59.3559 209.817,59.3559 210.5,60.5C 209.432,61.4345 208.099,61.7678 206.5,61.5C 205.833,60.1667 205.167,60.1667 204.5,61.5C 204.158,62.3382 203.492,62.6716 202.5,62.5C 201.833,61.1667 201.167,61.1667 200.5,62.5C 199.791,63.404 198.791,63.7373 197.5,63.5C 196.432,64.4345 195.099,64.7678 193.5,64.5C 192.432,65.4345 191.099,65.7678 189.5,65.5C 188.833,64.1667 188.167,64.1667 187.5,65.5C 187.158,66.3382 186.492,66.6716 185.5,66.5C 184.432,67.4345 183.099,67.7678 181.5,67.5C 181.167,66.1667 180.833,66.1667 180.5,67.5C 180.158,68.3382 179.492,68.6716 178.5,68.5C 177.833,67.1667 177.167,67.1667 176.5,68.5C 176.158,69.3382 175.492,69.6716 174.5,69.5C 174.167,68.1667 173.833,68.1667 173.5,69.5C 173.158,70.3382 172.492,70.6716 171.5,70.5C 170.151,69.3559 169.817,69.3559 170.5,70.5C 170.158,71.3382 169.492,71.6716 168.5,71.5C 167.151,70.3559 166.817,70.3559 167.5,71.5C 167.158,72.3382 166.492,72.6716 165.5,72.5C 164.151,71.3559 163.817,71.3559 164.5,72.5C 164.158,73.3382 163.492,73.6716 162.5,73.5C 161.151,72.3559 160.817,72.3559 161.5,73.5C 161.158,74.3382 160.492,74.6716 159.5,74.5C 158.151,73.3559 157.817,73.3559 158.5,74.5C 158.158,75.3382 157.492,75.6716 156.5,75.5C 156.167,74.1667 155.833,74.1667 155.5,75.5C 155.5,76.1667 155.167,76.5 154.5,76.5C 153.151,75.3559 152.817,75.3559 153.5,76.5C 153.158,77.3382 152.492,77.6716 151.5,77.5C 151.167,76.1667 150.833,76.1667 150.5,77.5C 150.5,78.1667 150.167,78.5 149.5,78.5C 148.151,77.3559 147.817,77.3559 148.5,78.5C 148.158,79.3382 147.492,79.6716 146.5,79.5C 146.158,80.3382 145.492,80.6716 144.5,80.5C 143.151,79.3559 142.817,79.3559 143.5,80.5C 143.158,81.3382 142.492,81.6716 141.5,81.5C 141.158,82.3382 140.492,82.6716 139.5,82.5C 139.158,83.3382 138.492,83.6716 137.5,83.5C 137.158,84.3382 136.492,84.6716 135.5,84.5C 135.158,85.3382 134.492,85.6716 133.5,85.5C 133.158,86.3382 132.492,86.6716 131.5,86.5C 131.158,87.3382 130.492,87.6716 129.5,87.5C 129.158,88.3382 128.492,88.6716 127.5,88.5C 127.158,89.3382 126.492,89.6716 125.5,89.5C 125.167,88.1667 124.833,88.1667 124.5,89.5C 123.833,89.5 123.5,89.8333 123.5,90.5C 123.5,91.1667 123.167,91.5 122.5,91.5C 122.167,90.1667 121.833,90.1667 121.5,91.5C 121.5,92.1667 121.167,92.5 120.5,92.5C 120.158,93.3382 119.492,93.6716 118.5,93.5C 118.167,92.1667 117.833,92.1667 117.5,93.5C 116.833,93.5 116.5,93.8333 116.5,94.5C 116.5,95.1667 116.167,95.5 115.5,95.5C 115.158,96.3382 114.492,96.6716 113.5,96.5C 113.167,95.1667 112.833,95.1667 112.5,96.5C 111.833,96.5 111.5,96.8333 111.5,97.5C 111.5,98.1667 111.167,98.5 110.5,98.5C 110.167,97.1667 109.833,97.1667 109.5,98.5C 108.833,98.5 108.5,98.8333 108.5,99.5C 108.5,100.167 108.167,100.5 107.5,100.5C 107.167,99.1667 106.833,99.1667 106.5,100.5C 105.833,100.5 105.5,100.833 105.5,101.5C 105.5,102.167 105.167,102.5 104.5,102.5C 104.167,101.167 103.833,101.167 103.5,102.5C 102.833,102.5 102.5,102.833 102.5,103.5C 102.5,104.167 102.167,104.5 101.5,104.5C 101.167,103.167 100.833,103.167 100.5,104.5C 99.8333,104.5 99.5,104.833 99.5,105.5C 98.8333,105.5 98.5,105.833 98.5,106.5C 98.5,107.167 98.1667,107.5 97.5,107.5C 97.1667,106.167 96.8333,106.167 96.5,107.5C 95.8333,107.5 95.5,107.833 95.5,108.5C 94.8333,108.5 94.5,108.833 94.5,109.5C 94.1667,110.5 93.5,111.167 92.5,111.5C 92.1667,110.167 91.8333,110.167 91.5,111.5C 90.8333,111.5 90.5,111.833 90.5,112.5C 89.8333,112.5 89.5,112.833 89.5,113.5C 89.1667,113.5 88.8333,113.5 88.5,113.5C 88.4226,112.25 87.756,111.417 86.5,111C 87.6853,109.647 89.0186,108.48 90.5,107.5C 90.3333,107.167 90.1667,106.833 90,106.5C 86.8843,106.304 84.0509,107.138 81.5,109C 84.6881,106.568 87.6881,103.901 90.5,101C 89.8333,100.667 89.1667,100.333 88.5,100C 93.0137,96.9088 97.347,93.5755 101.5,90C 101.272,89.6012 100.938,89.4346 100.5,89.5C 127.033,71.6966 156.033,59.1966 187.5,52C 206.354,47.5798 225.354,43.9131 244.5,41C 283.87,36.0661 323.204,30.8994 362.5,25.5 Z"/></g>
<g><path style="opacity:1" fill="#142649" d="M 317.5,50.5 C 318.552,50.3505 319.552,50.5172 320.5,51C 318.833,51.3333 317.167,51.6667 315.5,52C 314.304,52.6543 314.304,53.1543 315.5,53.5C 329.129,52.1955 342.795,51.1955 356.5,50.5C 361.305,51.9765 365.805,52.3098 370,51.5C 373.636,53.0944 377.469,53.9278 381.5,54C 382.701,54.9025 383.535,56.0692 384,57.5C 387.639,56.9543 391.472,56.7876 395.5,57C 394.692,57.3076 394.025,57.8076 393.5,58.5C 408.18,69.5385 422.513,84.2051 436.5,102.5C 438.22,103.934 440.22,104.767 442.5,105C 443.738,105.69 443.738,106.19 442.5,106.5C 416.517,98.5286 390.517,90.362 364.5,82C 360.69,81.4127 357.023,81.9127 353.5,83.5C 351.354,82.5694 349.188,82.9027 347,84.5C 339.79,78.6441 331.623,74.4774 322.5,72C 322.833,71.6667 323.167,71.3333 323.5,71C 269.263,61.9967 215.929,68.6633 163.5,91C 153.261,96.2755 143.594,102.275 134.5,109C 134.833,109.333 135.167,109.667 135.5,110C 133.998,110.583 132.665,111.416 131.5,112.5C 132.641,113.425 132.641,114.259 131.5,115C 127.044,118.105 122.544,121.271 118,124.5C 117.719,126.905 118.385,126.905 120,124.5C 120.667,125.167 120.667,125.833 120,126.5C 116.118,130.714 112.618,135.214 109.5,140C 105.167,140.333 100.833,140.667 96.5,141C 103.679,141.171 110.679,141.671 117.5,142.5C 106.36,141.985 95.3602,142.652 84.5,144.5C 81.6847,144.204 79.0181,145.204 76.5,147.5C 76.1667,147 75.8333,146.5 75.5,146C 88.5305,127.303 104.531,111.636 123.5,99C 119.785,100.11 116.285,101.943 113,104.5C 112.601,104.272 112.435,103.938 112.5,103.5C 134.722,88.3982 159.056,77.5648 185.5,71C 228.976,60.8097 272.976,53.9763 317.5,50.5 Z"/></g>
<g><path style="opacity:1" fill="#142d58" d="M 353.5,83.5 C 343.91,86.9829 334.244,90.3162 324.5,93.5C 323.328,92.2947 321.995,92.2947 320.5,93.5C 300.623,83.9903 279.623,79.3236 257.5,79.5C 208.916,81.0434 169.082,100.377 138,137.5C 136.234,139.596 134.901,141.929 134,144.5C 131.812,142.903 129.646,142.569 127.5,143.5C 124.193,142.949 120.86,142.616 117.5,142.5C 110.679,141.671 103.679,141.171 96.5,141C 100.833,140.667 105.167,140.333 109.5,140C 112.618,135.214 116.118,130.714 120,126.5C 120.667,125.833 120.667,125.167 120,124.5C 118.385,126.905 117.719,126.905 118,124.5C 122.544,121.271 127.044,118.105 131.5,115C 132.641,114.259 132.641,113.425 131.5,112.5C 132.665,111.416 133.998,110.583 135.5,110C 135.167,109.667 134.833,109.333 134.5,109C 143.594,102.275 153.261,96.2755 163.5,91C 215.929,68.6633 269.263,61.9967 323.5,71C 323.167,71.3333 322.833,71.6667 322.5,72C 331.623,74.4774 339.79,78.6441 347,84.5C 349.188,82.9027 351.354,82.5694 353.5,83.5 Z"/></g>
<g><path style="opacity:1" fill="#143062" d="M 324.5,93.5 C 314.496,96.8363 304.496,100.17 294.5,103.5C 290.613,101.073 286.279,99.5731 281.5,99C 232.492,91.89 190.992,106.057 157,141.5C 151.925,147.313 147.592,153.646 144,160.5C 143.626,158.509 142.793,156.842 141.5,155.5C 139.004,149.007 134.338,145.007 127.5,143.5C 129.646,142.569 131.812,142.903 134,144.5C 134.901,141.929 136.234,139.596 138,137.5C 169.082,100.377 208.916,81.0434 257.5,79.5C 279.623,79.3236 300.623,83.9903 320.5,93.5C 321.995,92.2947 323.328,92.2947 324.5,93.5 Z"/></g>
<g><path style="opacity:1" fill="#fcdc00" d="M 358.5,84.5 C 363.249,84.8034 367.916,85.6368 372.5,87C 412.373,100.457 452.373,113.624 492.5,126.5C 483.628,130.234 474.628,133.568 465.5,136.5C 465.628,153.293 467.128,169.959 470,186.5C 471.271,189.433 472.938,192.099 475,194.5C 481.708,201.375 488.541,208.042 495.5,214.5C 487.809,215.226 480.476,213.726 473.5,210C 471.833,209.333 470.167,209.333 468.5,210C 466.873,212.754 465.373,215.588 464,218.5C 461.049,223.799 458.049,223.799 455,218.5C 453.109,214.389 452.109,210.056 452,205.5C 451.801,191.837 451.968,178.17 452.5,164.5C 452.333,157.833 452.167,151.167 452,144.5C 451.692,143.692 451.192,143.025 450.5,142.5C 421.104,154.132 391.604,165.465 362,176.5C 319.536,160.513 277.369,143.847 235.5,126.5C 276.588,112.471 317.588,98.4713 358.5,84.5 Z"/></g>
<g><path style="opacity:1" fill="#142242" d="M 84.5,144.5 C 80.2732,146.393 76.6066,149.06 73.5,152.5C 72.603,153.598 71.7697,153.598 71,152.5C 64.8216,163.523 59.155,174.857 54,186.5C 53.4405,192.864 51.6072,199.03 48.5,205C 39.9458,232.246 36.9458,260.413 39.5,289.5C 40.552,289.351 41.552,289.517 42.5,290C 42.6112,292.529 42.1112,294.696 41,296.5C 42.8706,295.003 43.8706,293.003 44,290.5C 44.8952,293.466 44.3952,296.133 42.5,298.5C 43.8834,301.076 44.7167,300.742 45,297.5C 47.8587,313.075 52.5254,328.075 59,342.5C 59.3333,341.5 59.6667,340.5 60,339.5C 81.3682,380.872 113.535,410.372 156.5,428C 153.456,428.359 153.122,429.026 155.5,430C 178.438,437.229 201.105,442.229 223.5,445C 224.191,446.067 224.691,447.234 225,448.5C 226.154,446.043 227.488,446.043 229,448.5C 232.821,447.019 236.488,447.352 240,449.5C 242.305,449.421 244.805,449.254 247.5,449C 246.5,448.667 245.5,448.333 244.5,448C 245.167,447.833 245.833,447.667 246.5,447.5C 252.686,449.491 259.019,449.991 265.5,449C 264.5,448.667 263.5,448.333 262.5,448C 265.187,447.463 267.687,447.963 270,449.5C 271.57,448.642 273.237,447.975 275,447.5C 280.37,448.685 285.703,448.685 291,447.5C 292.907,445.416 294.573,445.416 296,447.5C 296.308,446.692 296.808,446.025 297.5,445.5C 301.18,446.296 304.68,446.296 308,445.5C 309.032,443.855 310.199,443.522 311.5,444.5C 313.985,442.659 316.485,442.326 319,443.5C 319.419,442.328 320.085,441.328 321,440.5C 323.333,440.833 325.667,441.167 328,441.5C 328.833,440 330,438.833 331.5,438C 330.5,437.667 329.5,437.333 328.5,437C 360.272,429.709 386.772,413.876 408,389.5C 408.333,390.167 408.667,390.833 409,391.5C 420.913,380.798 429.246,367.131 434,350.5C 434.359,353.544 435.026,353.878 436,351.5C 446.197,320.937 451.697,290.437 452.5,260C 454.117,249.892 455.117,239.892 455.5,230C 455.346,227.621 454.68,225.454 453.5,223.5C 453.624,222.893 453.957,222.56 454.5,222.5C 456.78,224.223 459.447,224.889 462.5,224.5C 460.142,253.173 457.642,281.839 455,310.5C 447.006,386.478 406.173,433.978 332.5,453C 286.086,462.717 239.419,464.051 192.5,457C 123.013,446.142 72.8465,409.309 42,346.5C 17.4964,281.012 22.8297,218.012 58,157.5C 72.0655,135.267 90.2322,117.267 112.5,103.5C 112.435,103.938 112.601,104.272 113,104.5C 116.285,101.943 119.785,100.11 123.5,99C 104.531,111.636 88.5305,127.303 75.5,146C 75.8333,146.5 76.1667,147 76.5,147.5C 79.0181,145.204 81.6847,144.204 84.5,144.5 Z"/></g>
<g><path style="opacity:1" fill="#143571" d="M 294.5,103.5 C 287.182,105.828 279.849,108.161 272.5,110.5C 227.17,106.747 190.003,122.414 161,157.5C 156.497,163.835 152.497,170.502 149,177.5C 148.722,176.584 148.222,175.918 147.5,175.5C 145.21,169.024 143.21,162.357 141.5,155.5C 142.793,156.842 143.626,158.509 144,160.5C 147.592,153.646 151.925,147.313 157,141.5C 190.992,106.057 232.492,91.89 281.5,99C 286.279,99.5731 290.613,101.073 294.5,103.5 Z"/></g>
<g><path style="opacity:1" fill="#0e0c06" d="M 358.5,105.5 C 364.652,104.408 369.818,106.075 374,110.5C 374.879,118.125 371.379,121.792 363.5,121.5C 355.844,121.679 352.677,118.012 354,110.5C 355.193,108.503 356.693,106.836 358.5,105.5 Z"/></g>
<g><path style="opacity:1" fill="#142e5a" d="M 359.5,108.5 C 362.518,108.335 365.518,108.502 368.5,109C 372.792,113.18 372.126,116.513 366.5,119C 356.831,119.873 354.498,116.373 359.5,108.5 Z"/></g>
<g><path style="opacity:1" fill="#143a7b" d="M 272.5,110.5 C 258.559,114.923 244.892,119.923 231.5,125.5C 194.285,136.026 168.619,159.693 154.5,196.5C 153.609,194.048 152.609,192.381 151.5,191.5C 149.565,186.427 148.232,181.094 147.5,175.5C 148.222,175.918 148.722,176.584 149,177.5C 152.497,170.502 156.497,163.835 161,157.5C 190.003,122.414 227.17,106.747 272.5,110.5 Z"/></g>
<g><path style="opacity:1" fill="#164190" d="M 231.5,125.5 C 232.359,128.452 234.359,130.285 237.5,131C 248.669,134.981 259.003,139.147 268.5,143.5C 255.526,142.41 242.526,142.244 229.5,143C 226.348,143.395 223.348,144.228 220.5,145.5C 217.572,146.591 215.406,148.591 214,151.5C 213.667,151.167 213.333,150.833 213,150.5C 184.912,169.328 170.412,195.828 169.5,230C 169.672,233.682 170.339,237.182 171.5,240.5C 169.278,240.178 167.444,240.845 166,242.5C 162.827,252.535 159.66,262.535 156.5,272.5C 152.933,260.871 150.6,248.871 149.5,236.5C 143.167,236.5 136.833,236.5 130.5,236.5C 127.941,236.802 125.607,236.468 123.5,235.5C 136.5,235.5 149.5,235.5 162.5,235.5C 162.737,234.209 162.404,233.209 161.5,232.5C 158.167,218.833 154.833,205.167 151.5,191.5C 152.609,192.381 153.609,194.048 154.5,196.5C 168.619,159.693 194.285,136.026 231.5,125.5 Z"/></g>
<g><path style="opacity:0.044" fill="#132245" d="M 481.5,195.5 C 480.833,195.5 480.5,195.167 480.5,194.5C 479.833,194.5 479.5,194.167 479.5,193.5C 478.833,193.5 478.5,193.167 478.5,192.5C 477.833,192.5 477.5,192.167 477.5,191.5C 477.672,190.508 477.338,189.842 476.5,189.5C 475.833,189.5 475.5,189.167 475.5,188.5C 475.672,187.508 475.338,186.842 474.5,186.5C 474.672,185.508 474.338,184.842 473.5,184.5C 473.657,183.127 473.49,181.793 473,180.5C 472.536,181.094 472.369,181.761 472.5,182.5C 471.596,181.791 471.263,180.791 471.5,179.5C 472.752,176.551 472.752,175.551 471.5,176.5C 470.539,174.735 470.205,172.735 470.5,170.5C 471.833,167.5 471.833,164.5 470.5,161.5C 470.368,154.977 470.702,148.477 471.5,142C 471.569,140.014 472.235,138.514 473.5,137.5C 474.167,138.833 474.833,138.833 475.5,137.5C 476.791,137.737 477.791,137.404 478.5,136.5C 480.937,136.244 483.271,135.577 485.5,134.5C 485.833,134.833 486.167,135.167 486.5,135.5C 484.847,153.774 483.68,172.107 483,190.5C 482.802,192.382 482.302,194.048 481.5,195.5 Z"/></g>
<g><path style="opacity:1" fill="#fddd02" d="M 117.5,142.5 C 120.86,142.616 124.193,142.949 127.5,143.5C 134.338,145.007 139.004,149.007 141.5,155.5C 143.21,162.357 145.21,169.024 147.5,175.5C 148.232,181.094 149.565,186.427 151.5,191.5C 154.833,205.167 158.167,218.833 161.5,232.5C 149.211,234.48 136.544,235.147 123.5,234.5C 120.005,220.518 116.505,206.518 113,192.5C 112.5,206.496 112.333,220.496 112.5,234.5C 98.8333,234.5 85.1667,234.5 71.5,234.5C 71.3334,209.164 71.5,183.831 72,158.5C 72.5046,156.482 73.0046,154.482 73.5,152.5C 76.6066,149.06 80.2732,146.393 84.5,144.5C 95.3602,142.652 106.36,141.985 117.5,142.5 Z"/></g>
<g><path style="opacity:1" fill="#fddd03" d="M 268.5,143.5 C 271.341,144.669 274.341,145.669 277.5,146.5C 281.7,150.028 284.7,154.361 286.5,159.5C 286.5,184.5 286.5,209.5 286.5,234.5C 271.833,234.5 257.167,234.5 242.5,234.5C 242.833,220.484 242.499,206.484 241.5,192.5C 240.702,192.957 240.369,193.624 240.5,194.5C 237.463,207.982 234.13,221.315 230.5,234.5C 217.833,234.5 205.167,234.5 192.5,234.5C 197.988,213.547 203.322,192.547 208.5,171.5C 210.467,166 212.3,160.333 214,154.5C 215.686,151.117 217.853,148.117 220.5,145.5C 223.348,144.228 226.348,143.395 229.5,143C 242.526,142.244 255.526,142.41 268.5,143.5 Z"/></g>
<g><path style="opacity:1" fill="#152448" d="M 454.5,222.5 C 453.957,222.56 453.624,222.893 453.5,223.5C 454.68,225.454 455.346,227.621 455.5,230C 455.117,239.892 454.117,249.892 452.5,260C 451.697,290.437 446.197,320.937 436,351.5C 435.026,353.878 434.359,353.544 434,350.5C 429.246,367.131 420.913,380.798 409,391.5C 408.667,390.833 408.333,390.167 408,389.5C 386.772,413.876 360.272,429.709 328.5,437C 329.5,437.333 330.5,437.667 331.5,438C 330,438.833 328.833,440 328,441.5C 325.667,441.167 323.333,440.833 321,440.5C 320.085,441.328 319.419,442.328 319,443.5C 316.485,442.326 313.985,442.659 311.5,444.5C 310.199,443.522 309.032,443.855 308,445.5C 304.68,446.296 301.18,446.296 297.5,445.5C 296.808,446.025 296.308,446.692 296,447.5C 294.573,445.416 292.907,445.416 291,447.5C 285.703,448.685 280.37,448.685 275,447.5C 273.237,447.975 271.57,448.642 270,449.5C 267.687,447.963 265.187,447.463 262.5,448C 263.5,448.333 264.5,448.667 265.5,449C 259.019,449.991 252.686,449.491 246.5,447.5C 245.833,447.667 245.167,447.833 244.5,448C 245.5,448.333 246.5,448.667 247.5,449C 244.805,449.254 242.305,449.421 240,449.5C 236.488,447.352 232.821,447.019 229,448.5C 227.488,446.043 226.154,446.043 225,448.5C 224.691,447.234 224.191,446.067 223.5,445C 201.105,442.229 178.438,437.229 155.5,430C 153.122,429.026 153.456,428.359 156.5,428C 113.535,410.372 81.3682,380.872 60,339.5C 59.6667,340.5 59.3333,341.5 59,342.5C 52.5254,328.075 47.8587,313.075 45,297.5C 44.7167,300.742 43.8834,301.076 42.5,298.5C 44.3952,296.133 44.8952,293.466 44,290.5C 43.8706,293.003 42.8706,295.003 41,296.5C 42.1112,294.696 42.6112,292.529 42.5,290C 41.552,289.517 40.552,289.351 39.5,289.5C 36.9458,260.413 39.9458,232.246 48.5,205C 51.6072,199.03 53.4405,192.864 54,186.5C 59.155,174.857 64.8216,163.523 71,152.5C 71.7697,153.598 72.603,153.598 73.5,152.5C 73.0046,154.482 72.5046,156.482 72,158.5C 71.5,183.831 71.3334,209.164 71.5,234.5C 85.1667,234.5 98.8333,234.5 112.5,234.5C 99.0061,235.331 85.3395,235.831 71.5,236C 79.8532,236.168 88.1866,236.668 96.5,237.5C 97.0253,238.192 97.6919,238.692 98.5,239C 93.7347,239.137 89.7347,239.637 86.5,240.5C 86.2172,241.289 85.7172,241.956 85,242.5C 84.5002,252.828 84.3335,263.161 84.5,273.5C 83.2006,275.153 83.5339,276.653 85.5,278C 87.8333,278.333 90.1667,278.667 92.5,279C 90.5188,279.605 90.1854,280.605 91.5,282C 84.8333,282.333 78.1667,282.667 71.5,283C 85.3395,283.169 99.0061,283.669 112.5,284.5C 98.8333,284.5 85.1667,284.5 71.5,284.5C 71.3334,306.169 71.5,327.836 72,349.5C 78.0082,365.621 88.8416,369.787 104.5,362C 107.381,359.721 109.381,356.888 110.5,353.5C 111.217,355.953 112.384,358.287 114,360.5C 168.877,416.56 234.377,434.393 310.5,414C 332.453,407.69 352.453,397.69 370.5,384C 372.037,382.89 372.703,381.39 372.5,379.5C 407.153,367.256 424.986,342.59 426,305.5C 426.5,298.508 426.666,291.508 426.5,284.5C 411.5,284.5 396.5,284.5 381.5,284.5C 396.328,283.669 411.328,283.169 426.5,283C 417.167,282.667 407.833,282.333 398.5,282C 399.717,280.352 400.55,278.519 401,276.5C 401.465,272.152 401.965,267.819 402.5,263.5C 403.461,267.335 404.295,271.335 405,275.5C 406.466,277.325 408.299,277.825 410.5,277C 412.456,269.561 414.289,262.061 416,254.5C 416.333,261.5 416.667,268.5 417,275.5C 418.312,277.658 419.978,277.991 422,276.5C 422.667,265.167 422.667,253.833 422,242.5C 419,239.833 416,239.833 413,242.5C 411.435,249.491 409.935,256.491 408.5,263.5C 406.982,256.075 405.149,248.741 403,241.5C 400.619,240.565 398.119,240.232 395.5,240.5C 401.036,237.989 404.703,239.655 406.5,245.5C 407.353,242.522 408.019,239.522 408.5,236.5C 414.509,236.666 420.509,236.499 426.5,236C 411.328,235.831 396.328,235.331 381.5,234.5C 396.5,234.5 411.5,234.5 426.5,234.5C 426.667,214.497 426.5,194.497 426,174.5C 425.254,169.838 423.087,166.005 419.5,163C 417.153,162.666 414.819,162.833 412.5,163.5C 410.118,164.546 407.785,164.546 405.5,163.5C 419.655,157.665 433.988,151.998 448.5,146.5C 449.3,167.163 449.467,187.83 449,208.5C 449.627,213.703 451.46,218.369 454.5,222.5 Z"/></g>
<g><path style="opacity:1" fill="#1d459d" d="M 220.5,145.5 C 217.853,148.117 215.686,151.117 214,154.5C 212.3,160.333 210.467,166 208.5,171.5C 206.937,174.046 205.604,177.379 204.5,181.5C 191.613,195.13 184.947,211.463 184.5,230.5C 186.052,245.118 186.886,259.785 187,274.5C 187.419,275.672 188.085,276.672 189,277.5C 189.399,277.272 189.565,276.938 189.5,276.5C 190.167,276.5 190.5,276.833 190.5,277.5C 195.017,278.166 199.683,278.833 204.5,279.5C 204.977,280.478 205.643,281.311 206.5,282C 197.5,282.333 188.5,282.667 179.5,283C 192.673,283.169 205.673,283.669 218.5,284.5C 205.167,284.5 191.833,284.5 178.5,284.5C 177.498,291.158 176.498,291.158 175.5,284.5C 162.673,283.669 149.673,283.169 136.5,283C 140.152,282.501 143.818,282.335 147.5,282.5C 156.525,282.832 165.525,282.498 174.5,281.5C 172.867,278.04 171.034,274.706 169,271.5C 167.644,270.62 166.144,270.286 164.5,270.5C 164.444,273.517 164.11,273.85 163.5,271.5C 163.5,270.5 163.5,269.5 163.5,268.5C 167.833,268.5 172.167,268.5 176.5,268.5C 176.311,272.297 177.644,275.297 180.5,277.5C 181.442,277.392 182.275,277.059 183,276.5C 183.667,274.5 183.667,272.5 183,270.5C 179.714,261.595 176.714,252.595 174,243.5C 173.623,242.058 172.79,241.058 171.5,240.5C 170.339,237.182 169.672,233.682 169.5,230C 170.412,195.828 184.912,169.328 213,150.5C 213.333,150.833 213.667,151.167 214,151.5C 215.406,148.591 217.572,146.591 220.5,145.5 Z"/></g>
<g><path style="opacity:1" fill="#1a479f" d="M 277.5,146.5 C 297.464,154.478 317.464,162.478 337.5,170.5C 336.352,171.164 335.019,171.331 333.5,171C 349.226,192.525 355.559,215.691 352.5,240.5C 351.778,240.918 351.278,241.584 351,242.5C 350.501,246.486 350.334,250.486 350.5,254.5C 346.5,254.5 342.5,254.5 338.5,254.5C 338.666,250.486 338.499,246.486 338,242.5C 336.933,240.717 335.433,240.217 333.5,241C 332.167,253 332.167,265 333.5,277C 335.433,277.783 336.933,277.283 338,275.5C 338.499,270.845 338.666,266.179 338.5,261.5C 342.5,261.5 346.5,261.5 350.5,261.5C 350.5,266.167 350.5,270.833 350.5,275.5C 349.499,271.94 349.166,267.607 349.5,262.5C 346.167,262.5 342.833,262.5 339.5,262.5C 339.781,267.565 339.448,272.565 338.5,277.5C 336.78,278.934 334.78,279.767 332.5,280C 322.036,295.296 308.369,306.796 291.5,314.5C 290.828,315.949 290.161,317.282 289.5,318.5C 288.94,314.807 288.273,311.14 287.5,307.5C 288.166,303.316 288.833,298.982 289.5,294.5C 297.501,290.992 304.168,285.825 309.5,279C 311.856,278.845 314.189,278.845 316.5,279C 315.584,278.722 314.918,278.222 314.5,277.5C 316.017,277.489 317.184,276.823 318,275.5C 318.5,266.173 318.666,256.839 318.5,247.5C 321.838,247.935 324.838,247.268 327.5,245.5C 327.369,246.239 327.536,246.906 328,247.5C 333.513,210.196 320.013,182.196 287.5,163.5C 287.768,161.901 287.434,160.568 286.5,159.5C 284.7,154.361 281.7,150.028 277.5,146.5 Z"/></g>
<g><path style="opacity:1" fill="#fbdc03" d="M 381.5,234.5 C 381.333,215.497 381.5,196.497 382,177.5C 392.302,172.929 402.468,168.263 412.5,163.5C 414.819,162.833 417.153,162.666 419.5,163C 423.087,166.005 425.254,169.838 426,174.5C 426.5,194.497 426.667,214.497 426.5,234.5C 411.5,234.5 396.5,234.5 381.5,234.5 Z"/></g>
<g><path style="opacity:1" fill="#1b4eb1" d="M 287.5,163.5 C 320.013,182.196 333.513,210.196 328,247.5C 327.536,246.906 327.369,246.239 327.5,245.5C 327.634,243.708 327.301,242.042 326.5,240.5C 319.352,239.508 312.019,239.175 304.5,239.5C 307.421,222.295 302.421,207.295 289.5,194.5C 288.211,184.206 287.544,173.873 287.5,163.5 Z"/></g>
<g><path style="opacity:1" fill="#143a7d" d="M 405.5,163.5 C 407.785,164.546 410.118,164.546 412.5,163.5C 402.468,168.263 392.302,172.929 382,177.5C 381.5,196.497 381.333,215.497 381.5,234.5C 396.328,235.331 411.328,235.831 426.5,236C 420.509,236.499 414.509,236.666 408.5,236.5C 400.167,236.5 391.833,236.5 383.5,236.5C 383.204,241.754 382.87,246.754 382.5,251.5C 381.65,247.566 379.983,244.066 377.5,241C 375.299,240.175 373.466,240.675 372,242.5C 368.258,252.652 365.092,262.985 362.5,273.5C 362.22,275.623 363.053,276.956 365,277.5C 366.771,276.653 367.937,275.32 368.5,273.5C 356.895,303.954 335.895,326.121 305.5,340C 307.167,341 308.833,342 310.5,343C 310.272,343.399 309.938,343.565 309.5,343.5C 303.747,341.464 299.413,337.798 296.5,332.5C 296.586,331.504 296.252,330.671 295.5,330C 320.576,320.557 339.409,304.057 352,280.5C 353.892,279.87 355.559,278.87 357,277.5C 357.826,265.659 357.659,253.993 356.5,242.5C 355.713,240.896 354.38,240.229 352.5,240.5C 355.559,215.691 349.226,192.525 333.5,171C 335.019,171.331 336.352,171.164 337.5,170.5C 345.482,173.495 353.482,176.495 361.5,179.5C 376.183,174.156 390.849,168.823 405.5,163.5 Z"/></g>
<g><path style="opacity:1" fill="#1e51bf" d="M 286.5,159.5 C 287.434,160.568 287.768,161.901 287.5,163.5C 287.544,173.873 288.211,184.206 289.5,194.5C 302.421,207.295 307.421,222.295 304.5,239.5C 312.019,239.175 319.352,239.508 326.5,240.5C 319.159,240.334 311.826,240.5 304.5,241C 301.876,242.969 301.876,244.802 304.5,246.5C 306.607,247.468 308.941,247.802 311.5,247.5C 311.173,257.015 311.506,266.348 312.5,275.5C 312.833,276.5 313.5,277.167 314.5,277.5C 314.918,278.222 315.584,278.722 316.5,279C 314.189,278.845 311.856,278.845 309.5,279C 304.168,285.825 297.501,290.992 289.5,294.5C 288.833,298.982 288.166,303.316 287.5,307.5C 286.793,299.854 286.46,292.187 286.5,284.5C 271.676,283.504 256.676,283.171 241.5,283.5C 241.5,289.833 241.5,296.167 241.5,302.5C 241.631,303.239 241.464,303.906 241,304.5C 240.51,303.207 240.343,301.873 240.5,300.5C 240.785,295.103 240.451,289.77 239.5,284.5C 236.288,282.802 232.954,281.302 229.5,280C 227.891,271.786 222.558,267.786 213.5,268C 216.695,267.819 219.695,267.319 222.5,266.5C 224.676,265.287 225.009,263.62 223.5,261.5C 220.216,260.343 216.882,260.176 213.5,261C 211.963,262.11 211.297,263.61 211.5,265.5C 210.113,263.511 210.447,261.678 212.5,260C 215.5,259.667 218.5,259.333 221.5,259C 218.551,258.61 216.384,257.11 215,254.5C 212.405,249.049 210.405,243.382 209,237.5C 203.583,236.691 198.083,236.191 192.5,236C 205.34,235.831 218.007,235.331 230.5,234.5C 234.13,221.315 237.463,207.982 240.5,194.5C 241.496,207.99 241.829,221.656 241.5,235.5C 256.676,235.829 271.676,235.496 286.5,234.5C 286.5,209.5 286.5,184.5 286.5,159.5 Z"/></g>
<g><path style="opacity:1" fill="#979d60" d="M 286.5,234.5 C 271.676,235.496 256.676,235.829 241.5,235.5C 241.829,221.656 241.496,207.99 240.5,194.5C 240.369,193.624 240.702,192.957 241.5,192.5C 242.499,206.484 242.833,220.484 242.5,234.5C 257.167,234.5 271.833,234.5 286.5,234.5 Z"/></g>
<g><path style="opacity:1" fill="#254eb0" d="M 208.5,171.5 C 203.322,192.547 197.988,213.547 192.5,234.5C 205.167,234.5 217.833,234.5 230.5,234.5C 218.007,235.331 205.34,235.831 192.5,236C 198.083,236.191 203.583,236.691 209,237.5C 210.405,243.382 212.405,249.049 215,254.5C 216.384,257.11 218.551,258.61 221.5,259C 218.5,259.333 215.5,259.667 212.5,260C 210.447,261.678 210.113,263.511 211.5,265.5C 215.064,266.423 218.731,266.756 222.5,266.5C 219.695,267.319 216.695,267.819 213.5,268C 222.558,267.786 227.891,271.786 229.5,280C 232.954,281.302 236.288,282.802 239.5,284.5C 240.451,289.77 240.785,295.103 240.5,300.5C 232.893,298.855 225.893,295.855 219.5,291.5C 218.029,292.381 217.196,293.714 217,295.5C 216.601,295.272 216.435,294.938 216.5,294.5C 216.54,291.012 217.207,287.679 218.5,284.5C 205.673,283.669 192.673,283.169 179.5,283C 188.5,282.667 197.5,282.333 206.5,282C 205.643,281.311 204.977,280.478 204.5,279.5C 199.683,278.833 195.017,278.166 190.5,277.5C 196.758,277.81 202.924,277.476 209,276.5C 209.72,274.888 209.554,273.388 208.5,272C 203.845,271.501 199.179,271.334 194.5,271.5C 194.666,261.494 194.5,251.494 194,241.5C 192.612,240.446 191.112,240.28 189.5,241C 188.176,252.833 188.176,264.667 189.5,276.5C 189.565,276.938 189.399,277.272 189,277.5C 188.085,276.672 187.419,275.672 187,274.5C 186.886,259.785 186.052,245.118 184.5,230.5C 184.947,211.463 191.613,195.13 204.5,181.5C 205.604,177.379 206.937,174.046 208.5,171.5 Z"/></g>
<g><path style="opacity:1" fill="#182f62" d="M 123.5,234.5 C 123.5,234.833 123.5,235.167 123.5,235.5C 125.607,236.468 127.941,236.802 130.5,236.5C 130.671,241.196 131.171,245.863 132,250.5C 132.333,247.833 132.667,245.167 133,242.5C 133.821,249.346 133.654,256.013 132.5,262.5C 129.129,254.968 125.129,247.801 120.5,241C 119.167,240.333 117.833,240.333 116.5,241C 115.346,252.757 115.179,264.591 116,276.5C 117.333,277.833 118.667,277.833 120,276.5C 120.333,268.833 120.667,261.167 121,253.5C 125,260.833 129,268.167 133,275.5C 135.293,278.134 137.46,278.134 139.5,275.5C 140.33,264.674 140.83,253.674 141,242.5C 141.333,250.5 141.667,258.5 142,266.5C 144.134,271.759 145.967,277.092 147.5,282.5C 143.818,282.335 140.152,282.501 136.5,283C 149.673,283.169 162.673,283.669 175.5,284.5C 162.483,284.168 149.483,284.501 136.5,285.5C 141.302,303.373 145.802,321.373 150,339.5C 152.012,347.859 155.845,355.193 161.5,361.5C 148.216,350.701 136.05,338.034 125,323.5C 121.268,318.094 117.935,312.427 115,306.5C 114.5,314.493 114.334,322.493 114.5,330.5C 114.666,335.511 114.499,340.511 114,345.5C 113.79,347.058 113.29,348.391 112.5,349.5C 112.5,327.833 112.5,306.167 112.5,284.5C 99.0061,283.669 85.3395,283.169 71.5,283C 78.1667,282.667 84.8333,282.333 91.5,282C 90.1854,280.605 90.5188,279.605 92.5,279C 90.1667,278.667 87.8333,278.333 85.5,278C 83.5339,276.653 83.2006,275.153 84.5,273.5C 84.5106,275.017 85.1772,276.184 86.5,277C 91.5,277.667 96.5,277.667 101.5,277C 106.689,275.466 109.023,271.966 108.5,266.5C 109.146,262.312 107.48,259.478 103.5,258C 107.203,254.604 108.369,250.437 107,245.5C 105.457,243.622 103.624,242.122 101.5,241C 96.5111,240.501 91.5111,240.334 86.5,240.5C 89.7347,239.637 93.7347,239.137 98.5,239C 97.6919,238.692 97.0253,238.192 96.5,237.5C 88.1866,236.668 79.8532,236.168 71.5,236C 85.3395,235.831 99.0061,235.331 112.5,234.5C 112.333,220.496 112.5,206.496 113,192.5C 116.505,206.518 120.005,220.518 123.5,234.5 Z"/></g>
<g><path style="opacity:0.048" fill="#132143" d="M 100.5,89.5 C 100.938,89.4346 101.272,89.6012 101.5,90C 97.347,93.5755 93.0137,96.9088 88.5,100C 89.1667,100.333 89.8333,100.667 90.5,101C 87.6881,103.901 84.6881,106.568 81.5,109C 84.0509,107.138 86.8843,106.304 90,106.5C 90.1667,106.833 90.3333,107.167 90.5,107.5C 89.0186,108.48 87.6853,109.647 86.5,111C 87.756,111.417 88.4226,112.25 88.5,113.5C 88.5,113.833 88.5,114.167 88.5,114.5C 88.1667,115.5 87.5,116.167 86.5,116.5C 86.1667,115.167 85.8333,115.167 85.5,116.5C 84.8333,116.5 84.5,116.833 84.5,117.5C 83.8333,117.5 83.5,117.833 83.5,118.5C 82.8333,118.5 82.5,118.833 82.5,119.5C 81.8333,119.5 81.5,119.833 81.5,120.5C 80.8333,120.5 80.5,120.833 80.5,121.5C 79.8333,121.5 79.5,121.833 79.5,122.5C 78.8333,122.5 78.5,122.833 78.5,123.5C 77.8333,123.5 77.5,123.833 77.5,124.5C 76.8333,124.5 76.5,124.833 76.5,125.5C 75.8333,125.5 75.5,125.833 75.5,126.5C 74.8333,126.5 74.5,126.833 74.5,127.5C 73.8333,127.5 73.5,127.833 73.5,128.5C 72.8333,128.5 72.5,128.833 72.5,129.5C 71.1667,129.833 71.1667,130.167 72.5,130.5C 72.1667,131.5 71.5,132.167 70.5,132.5C 69.8333,132.5 69.5,132.833 69.5,133.5C 68.8333,133.5 68.5,133.833 68.5,134.5C 67.8333,134.5 67.5,134.833 67.5,135.5C 66.1667,135.833 66.1667,136.167 67.5,136.5C 67.5,137.167 67.1667,137.5 66.5,137.5C 65.8333,137.5 65.5,137.833 65.5,138.5C 64.8333,138.5 64.5,138.833 64.5,139.5C 63.8333,139.5 63.5,139.833 63.5,140.5C 62.1667,140.833 62.1667,141.167 63.5,141.5C 63.5,142.167 63.1667,142.5 62.5,142.5C 61.8333,142.5 61.5,142.833 61.5,143.5C 60.8333,143.5 60.5,143.833 60.5,144.5C 59.1667,144.833 59.1667,145.167 60.5,145.5C 60.5,146.167 60.1667,146.5 59.5,146.5C 58.8333,146.5 58.5,146.833 58.5,147.5C 57.1667,147.833 57.1667,148.167 58.5,148.5C 58.5,149.167 58.1667,149.5 57.5,149.5C 56.8333,149.5 56.5,149.833 56.5,150.5C 55.8333,150.5 55.5,150.833 55.5,151.5C 54.6618,151.842 54.3284,152.508 54.5,153.5C 53.1667,153.833 53.1667,154.167 54.5,154.5C 54.5,155.167 54.1667,155.5 53.5,155.5C 52.8333,155.5 52.5,155.833 52.5,156.5C 51.1667,156.833 51.1667,157.167 52.5,157.5C 52.5,158.167 52.1667,158.5 51.5,158.5C 50.1667,158.833 50.1667,159.167 51.5,159.5C 51.5,160.167 51.1667,160.5 50.5,160.5C 49.8333,160.5 49.5,160.833 49.5,161.5C 48.1667,161.833 48.1667,162.167 49.5,162.5C 49.6716,163.492 49.3382,164.158 48.5,164.5C 48.6716,165.492 48.3382,166.158 47.5,166.5C 47.5,167.167 47.1667,167.5 46.5,167.5C 45.1667,167.833 45.1667,168.167 46.5,168.5C 46.5,169.167 46.1667,169.5 45.5,169.5C 44.1667,169.833 44.1667,170.167 45.5,170.5C 45.5,171.167 45.1667,171.5 44.5,171.5C 43.1667,171.833 43.1667,172.167 44.5,172.5C 44.5,173.167 44.1667,173.5 43.5,173.5C 42.1667,173.833 42.1667,174.167 43.5,174.5C 43.5,175.167 43.1667,175.5 42.5,175.5C 41.1667,175.833 41.1667,176.167 42.5,176.5C 42.6716,177.492 42.3382,178.158 41.5,178.5C 41.6716,179.492 41.3382,180.158 40.5,180.5C 40.6716,181.492 40.3382,182.158 39.5,182.5C 38.3559,181.817 38.3559,182.151 39.5,183.5C 39.5,184.167 39.1667,184.5 38.5,184.5C 37.1667,184.833 37.1667,185.167 38.5,185.5C 38.6716,186.492 38.3382,187.158 37.5,187.5C 36.3559,186.817 36.3559,187.151 37.5,188.5C 37.5,189.167 37.1667,189.5 36.5,189.5C 35.1667,189.833 35.1667,190.167 36.5,190.5C 36.6716,191.492 36.3382,192.158 35.5,192.5C 34.3559,191.817 34.3559,192.151 35.5,193.5C 35.5,194.167 35.1667,194.5 34.5,194.5C 33.1667,194.833 33.1667,195.167 34.5,195.5C 34.6716,196.492 34.3382,197.158 33.5,197.5C 32.1667,197.833 32.1667,198.167 33.5,198.5C 33.6716,199.492 33.3382,200.158 32.5,200.5C 31.1667,200.833 31.1667,201.167 32.5,201.5C 32.6716,202.492 32.3382,203.158 31.5,203.5C 30.1667,204.167 30.1667,204.833 31.5,205.5C 31.6716,206.492 31.3382,207.158 30.5,207.5C 29.3559,206.817 29.3559,207.151 30.5,208.5C 30.6716,209.492 30.3382,210.158 29.5,210.5C 28.1667,210.833 28.1667,211.167 29.5,211.5C 29.7373,212.791 29.404,213.791 28.5,214.5C 27.3559,213.817 27.3559,214.151 28.5,215.5C 28.6716,216.492 28.3382,217.158 27.5,217.5C 26.1667,218.167 26.1667,218.833 27.5,219.5C 27.7373,220.791 27.404,221.791 26.5,222.5C 25.266,222.285 25.266,222.952 26.5,224.5C 26.6716,225.492 26.3382,226.158 25.5,226.5C 24.1667,227.5 24.1667,228.5 25.5,229.5C 25.7373,230.791 25.404,231.791 24.5,232.5C 23.1667,233.167 23.1667,233.833 24.5,234.5C 24.8016,237.059 24.4682,239.393 23.5,241.5C 22.5772,238.194 22.5772,238.528 23.5,242.5C 23.8016,245.059 23.4682,247.393 22.5,249.5C 21.4738,246.603 21.4738,247.27 22.5,251.5C 22.5,263.167 22.5,274.833 22.5,286.5C 23.4794,289.625 23.8128,292.958 23.5,296.5C 24.4682,298.607 24.8016,300.941 24.5,303.5C 23.266,305.048 23.266,305.715 24.5,305.5C 25.404,306.209 25.7373,307.209 25.5,308.5C 24.266,310.048 24.266,310.715 25.5,310.5C 26.4345,311.568 26.7678,312.901 26.5,314.5C 27.4345,315.568 27.7678,316.901 27.5,318.5C 28.4345,319.568 28.7678,320.901 28.5,322.5C 29.404,323.209 29.7373,324.209 29.5,325.5C 28.3559,326.849 28.3559,327.183 29.5,326.5C 30.404,327.209 30.7373,328.209 30.5,329.5C 31.404,330.209 31.7373,331.209 31.5,332.5C 32.404,333.209 32.7373,334.209 32.5,335.5C 33.3382,335.842 33.6716,336.508 33.5,337.5C 32.3559,338.849 32.3559,339.183 33.5,338.5C 34.3382,338.842 34.6716,339.508 34.5,340.5C 33.1667,340.833 33.1667,341.167 34.5,341.5C 35.3382,341.842 35.6716,342.508 35.5,343.5C 36.3382,343.842 36.6716,344.508 36.5,345.5C 35.1667,345.833 35.1667,346.167 36.5,346.5C 37.1667,346.5 37.5,346.833 37.5,347.5C 36.3559,348.849 36.3559,349.183 37.5,348.5C 38.3382,348.842 38.6716,349.508 38.5,350.5C 39.3382,350.842 39.6716,351.508 39.5,352.5C 40.3382,352.842 40.6716,353.508 40.5,354.5C 39.1667,354.833 39.1667,355.167 40.5,355.5C 41.1667,355.5 41.5,355.833 41.5,356.5C 40.1667,356.833 40.1667,357.167 41.5,357.5C 42.1667,357.5 42.5,357.833 42.5,358.5C 41.1667,358.833 41.1667,359.167 42.5,359.5C 43.1667,359.5 43.5,359.833 43.5,360.5C 44.3382,360.842 44.6716,361.508 44.5,362.5C 45.3382,362.842 45.6716,363.508 45.5,364.5C 44.1667,364.833 44.1667,365.167 45.5,365.5C 46.1667,365.5 46.5,365.833 46.5,366.5C 47.1667,366.5 47.5,366.833 47.5,367.5C 46.1667,367.833 46.1667,368.167 47.5,368.5C 48.1667,368.5 48.5,368.833 48.5,369.5C 47.1667,369.833 47.1667,370.167 48.5,370.5C 49.1667,370.5 49.5,370.833 49.5,371.5C 50.1667,371.5 50.5,371.833 50.5,372.5C 49.1667,372.833 49.1667,373.167 50.5,373.5C 50.3284,374.492 50.6618,375.158 51.5,375.5C 52.1667,375.5 52.5,375.833 52.5,376.5C 53.1667,376.5 53.5,376.833 53.5,377.5C 52.1667,377.833 52.1667,378.167 53.5,378.5C 54.1667,378.5 54.5,378.833 54.5,379.5C 55.1667,379.5 55.5,379.833 55.5,380.5C 56.1667,380.5 56.5,380.833 56.5,381.5C 55.1667,381.833 55.1667,382.167 56.5,382.5C 57.1667,382.5 57.5,382.833 57.5,383.5C 58.1667,383.5 58.5,383.833 58.5,384.5C 57.1667,384.833 57.1667,385.167 58.5,385.5C 59.1667,385.5 59.5,385.833 59.5,386.5C 60.1667,386.5 60.5,386.833 60.5,387.5C 61.1667,387.5 61.5,387.833 61.5,388.5C 60.1667,388.833 60.1667,389.167 61.5,389.5C 62.1667,389.5 62.5,389.833 62.5,390.5C 63.1667,390.5 63.5,390.833 63.5,391.5C 64.1667,391.5 64.5,391.833 64.5,392.5C 65.1667,392.5 65.5,392.833 65.5,393.5C 64.1667,393.833 64.1667,394.167 65.5,394.5C 66.1667,394.5 66.5,394.833 66.5,395.5C 67.1667,395.5 67.5,395.833 67.5,396.5C 68.1667,396.5 68.5,396.833 68.5,397.5C 69.1667,397.5 69.5,397.833 69.5,398.5C 70.1667,398.5 70.5,398.833 70.5,399.5C 71.1667,399.5 71.5,399.833 71.5,400.5C 72.1667,400.5 72.5,400.833 72.5,401.5C 73.5,401.833 74.1667,402.5 74.5,403.5C 73.1667,403.833 73.1667,404.167 74.5,404.5C 75.1667,404.5 75.5,404.833 75.5,405.5C 76.1667,405.5 76.5,405.833 76.5,406.5C 77.1667,406.5 77.5,406.833 77.5,407.5C 77.8333,408.833 78.1667,408.833 78.5,407.5C 79.8333,408.167 80.8333,409.167 81.5,410.5C 82.1667,410.5 82.5,410.833 82.5,411.5C 83.1667,411.5 83.5,411.833 83.5,412.5C 84.1667,412.5 84.5,412.833 84.5,413.5C 85.1667,413.5 85.5,413.833 85.5,414.5C 86.1667,414.5 86.5,414.833 86.5,415.5C 87.1667,415.5 87.5,415.833 87.5,416.5C 87.8333,417.833 88.1667,417.833 88.5,416.5C 89.5,416.833 90.1667,417.5 90.5,418.5C 91.1667,418.5 91.5,418.833 91.5,419.5C 92.1667,419.5 92.5,419.833 92.5,420.5C 93.1667,420.5 93.5,420.833 93.5,421.5C 93.8333,422.833 94.1667,422.833 94.5,421.5C 95.1667,421.5 95.5,421.833 95.5,422.5C 96.1667,422.5 96.5,422.833 96.5,423.5C 97.1667,423.5 97.5,423.833 97.5,424.5C 97.8333,425.833 98.1667,425.833 98.5,424.5C 99.1667,424.5 99.5,424.833 99.5,425.5C 100.167,425.5 100.5,425.833 100.5,426.5C 100.833,427.833 101.167,427.833 101.5,426.5C 102.167,426.5 102.5,426.833 102.5,427.5C 103.167,427.5 103.5,427.833 103.5,428.5C 103.833,429.833 104.167,429.833 104.5,428.5C 105.167,428.5 105.5,428.833 105.5,429.5C 106.167,429.5 106.5,429.833 106.5,430.5C 106.833,431.833 107.167,431.833 107.5,430.5C 108.167,430.5 108.5,430.833 108.5,431.5C 109.167,431.5 109.5,431.833 109.5,432.5C 109.833,433.833 110.167,433.833 110.5,432.5C 111.167,432.5 111.5,432.833 111.5,433.5C 112.167,433.5 112.5,433.833 112.5,434.5C 112.842,435.338 113.508,435.672 114.5,435.5C 114.833,436.833 115.167,436.833 115.5,435.5C 116.492,435.328 117.158,435.662 117.5,436.5C 118.167,436.5 118.5,436.833 118.5,437.5C 118.833,438.833 119.167,438.833 119.5,437.5C 120.167,437.5 120.5,437.833 120.5,438.5C 121.167,438.5 121.5,438.833 121.5,439.5C 121.842,440.338 122.508,440.672 123.5,440.5C 123.842,441.338 124.508,441.672 125.5,441.5C 125.842,442.338 126.508,442.672 127.5,442.5C 127.842,443.338 128.508,443.672 129.5,443.5C 130.167,444.833 130.833,444.833 131.5,443.5C 132.167,443.5 132.5,443.833 132.5,444.5C 132.833,445.833 133.167,445.833 133.5,444.5C 134.492,444.328 135.158,444.662 135.5,445.5C 136.492,445.328 137.158,445.662 137.5,446.5C 136.817,447.644 137.151,447.644 138.5,446.5C 139.167,446.5 139.5,446.833 139.5,447.5C 139.833,448.833 140.167,448.833 140.5,447.5C 141.492,447.328 142.158,447.662 142.5,448.5C 141.817,449.644 142.151,449.644 143.5,448.5C 144.167,448.5 144.5,448.833 144.5,449.5C 144.833,450.833 145.167,450.833 145.5,449.5C 146.492,449.328 147.158,449.662 147.5,450.5C 146.817,451.644 147.151,451.644 148.5,450.5C 149.492,450.328 150.158,450.662 150.5,451.5C 149.817,452.644 150.151,452.644 151.5,451.5C 152.492,451.328 153.158,451.662 153.5,452.5C 152.817,453.644 153.151,453.644 154.5,452.5C 155.791,452.263 156.791,452.596 157.5,453.5C 158.492,453.328 159.158,453.662 159.5,454.5C 159.833,455.833 160.167,455.833 160.5,454.5C 161.492,454.328 162.158,454.662 162.5,455.5C 163.167,456.833 163.833,456.833 164.5,455.5C 165.791,455.263 166.791,455.596 167.5,456.5C 166.817,457.644 167.151,457.644 168.5,456.5C 169.492,456.328 170.158,456.662 170.5,457.5C 170.285,458.734 170.952,458.734 172.5,457.5C 173.492,457.328 174.158,457.662 174.5,458.5C 175.167,459.833 175.833,459.833 176.5,458.5C 177.791,458.263 178.791,458.596 179.5,459.5C 179.285,460.734 179.952,460.734 181.5,459.5C 183.099,459.232 184.432,459.566 185.5,460.5C 183.523,461.507 183.857,461.507 186.5,460.5C 188.099,460.232 189.432,460.566 190.5,461.5C 188.523,462.507 188.857,462.507 191.5,461.5C 193.735,461.205 195.735,461.539 197.5,462.5C 195.523,463.507 195.857,463.507 198.5,462.5C 200.099,462.232 201.432,462.566 202.5,463.5C 202.743,464.769 203.743,464.769 205.5,463.5C 208.385,463.194 211.052,463.527 213.5,464.5C 210.194,465.423 210.528,465.423 214.5,464.5C 217.713,464.19 220.713,464.523 223.5,465.5C 223.699,466.822 225.366,466.822 228.5,465.5C 245.5,465.5 262.5,465.5 279.5,465.5C 285.31,466.538 286.31,466.538 282.5,465.5C 285.625,464.521 288.958,464.187 292.5,464.5C 296.472,465.423 296.806,465.423 293.5,464.5C 295.948,463.527 298.615,463.194 301.5,463.5C 305.472,464.423 305.806,464.423 302.5,463.5C 304.265,462.539 306.265,462.205 308.5,462.5C 311.143,463.507 311.477,463.507 309.5,462.5C 310.919,461.549 312.585,461.216 314.5,461.5C 316.265,460.539 318.265,460.205 320.5,460.5C 321.919,459.549 323.585,459.216 325.5,459.5C 326.919,458.549 328.585,458.216 330.5,458.5C 331.568,457.566 332.901,457.232 334.5,457.5C 335.209,456.596 336.209,456.263 337.5,456.5C 340.143,457.507 340.477,457.507 338.5,456.5C 339.209,455.596 340.209,455.263 341.5,455.5C 342.849,456.644 343.183,456.644 342.5,455.5C 343.209,454.596 344.209,454.263 345.5,454.5C 346.209,453.596 347.209,453.263 348.5,453.5C 349.209,452.596 350.209,452.263 351.5,452.5C 352.209,451.596 353.209,451.263 354.5,451.5C 355.209,450.596 356.209,450.263 357.5,450.5C 357.842,449.662 358.508,449.328 359.5,449.5C 360.849,450.644 361.183,450.644 360.5,449.5C 360.842,448.662 361.508,448.328 362.5,448.5C 362.842,447.662 363.508,447.328 364.5,447.5C 365.849,448.644 366.183,448.644 365.5,447.5C 365.842,446.662 366.508,446.328 367.5,446.5C 367.842,445.662 368.508,445.328 369.5,445.5C 369.833,446.833 370.167,446.833 370.5,445.5C 370.5,444.833 370.833,444.5 371.5,444.5C 371.842,443.662 372.508,443.328 373.5,443.5C 373.833,444.833 374.167,444.833 374.5,443.5C 374.5,442.833 374.833,442.5 375.5,442.5C 375.833,443.833 376.167,443.833 376.5,442.5C 376.5,441.833 376.833,441.5 377.5,441.5C 377.833,442.833 378.167,442.833 378.5,441.5C 378.5,440.833 378.833,440.5 379.5,440.5C 379.842,439.662 380.508,439.328 381.5,439.5C 381.833,440.833 382.167,440.833 382.5,439.5C 383.492,439.672 384.158,439.338 384.5,438.5C 385.167,438.5 385.5,438.167 385.5,437.5C 385.5,436.833 385.833,436.5 386.5,436.5C 386.842,435.662 387.508,435.328 388.5,435.5C 388.833,436.833 389.167,436.833 389.5,435.5C 390.167,435.5 390.5,435.167 390.5,434.5C 390.5,433.833 390.833,433.5 391.5,433.5C 391.833,434.833 392.167,434.833 392.5,433.5C 393.167,433.5 393.5,433.167 393.5,432.5C 393.5,431.833 393.833,431.5 394.5,431.5C 394.833,432.833 395.167,432.833 395.5,431.5C 396.167,431.5 396.5,431.167 396.5,430.5C 396.5,429.833 396.833,429.5 397.5,429.5C 397.833,430.833 398.167,430.833 398.5,429.5C 399.167,429.5 399.5,429.167 399.5,428.5C 400.167,428.5 400.5,428.167 400.5,427.5C 401.492,427.672 402.158,427.338 402.5,426.5C 403.167,426.5 403.5,426.167 403.5,425.5C 404.167,425.5 404.5,425.167 404.5,424.5C 405.167,424.5 405.5,424.167 405.5,423.5C 406.167,423.5 406.5,423.167 406.5,422.5C 406.5,421.833 406.833,421.5 407.5,421.5C 407.833,422.833 408.167,422.833 408.5,421.5C 409.167,421.5 409.5,421.167 409.5,420.5C 410.167,420.5 410.5,420.167 410.5,419.5C 411.167,419.5 411.5,419.167 411.5,418.5C 412.167,418.5 412.5,418.167 412.5,417.5C 413.167,417.5 413.5,417.167 413.5,416.5C 414.167,416.5 414.5,416.167 414.5,415.5C 415.167,415.5 415.5,415.167 415.5,414.5C 416.167,414.5 416.5,414.167 416.5,413.5C 417.167,413.5 417.5,413.167 417.5,412.5C 418.167,412.5 418.5,412.167 418.5,411.5C 419.167,411.5 419.5,411.167 419.5,410.5C 420.833,410.167 420.833,409.833 419.5,409.5C 419.5,408.833 419.833,408.5 420.5,408.5C 421.167,408.5 421.5,408.167 421.5,407.5C 422.167,407.5 422.5,407.167 422.5,406.5C 423.167,406.5 423.5,406.167 423.5,405.5C 424.167,405.5 424.5,405.167 424.5,404.5C 425.833,404.167 425.833,403.833 424.5,403.5C 424.5,402.833 424.833,402.5 425.5,402.5C 426.167,402.5 426.5,402.167 426.5,401.5C 427.167,401.5 427.5,401.167 427.5,400.5C 428.833,400.167 428.833,399.833 427.5,399.5C 427.5,398.833 427.833,398.5 428.5,398.5C 429.167,398.5 429.5,398.167 429.5,397.5C 430.167,397.5 430.5,397.167 430.5,396.5C 431.338,396.158 431.672,395.492 431.5,394.5C 432.167,394.5 432.5,394.167 432.5,393.5C 433.338,393.158 433.672,392.492 433.5,391.5C 434.167,391.5 434.5,391.167 434.5,390.5C 435.338,390.158 435.672,389.492 435.5,388.5C 436.833,388.167 436.833,387.833 435.5,387.5C 435.5,386.833 435.833,386.5 436.5,386.5C 437.833,386.167 437.833,385.833 436.5,385.5C 436.5,384.833 436.833,384.5 437.5,384.5C 438.167,384.5 438.5,384.167 438.5,383.5C 439.338,383.158 439.672,382.492 439.5,381.5C 440.833,381.167 440.833,380.833 439.5,380.5C 439.328,379.508 439.662,378.842 440.5,378.5C 440.328,377.508 440.662,376.842 441.5,376.5C 441.328,375.508 441.662,374.842 442.5,374.5C 442.328,373.508 442.662,372.842 443.5,372.5C 443.328,371.508 443.662,370.842 444.5,370.5C 445.644,371.183 445.644,370.849 444.5,369.5C 444.328,368.508 444.662,367.842 445.5,367.5C 445.328,366.508 445.662,365.842 446.5,365.5C 447.644,366.183 447.644,365.849 446.5,364.5C 446.328,363.508 446.662,362.842 447.5,362.5C 447.263,361.209 447.596,360.209 448.5,359.5C 448.263,358.209 448.596,357.209 449.5,356.5C 449.263,355.209 449.596,354.209 450.5,353.5C 450.263,352.209 450.596,351.209 451.5,350.5C 452.644,351.183 452.644,350.849 451.5,349.5C 451.263,348.209 451.596,347.209 452.5,346.5C 452.232,344.901 452.566,343.568 453.5,342.5C 453.263,341.209 453.596,340.209 454.5,339.5C 455.833,339.167 455.833,338.833 454.5,338.5C 454.216,336.585 454.549,334.919 455.5,333.5C 455.216,331.585 455.549,329.919 456.5,328.5C 456.205,326.265 456.539,324.265 457.5,322.5C 457.232,320.901 457.566,319.568 458.5,318.5C 459.507,320.477 459.507,320.143 458.5,317.5C 458.216,315.585 458.549,313.919 459.5,312.5C 460.734,312.715 460.734,312.048 459.5,310.5C 459.198,307.941 459.532,305.607 460.5,303.5C 460.185,299.629 460.518,295.962 461.5,292.5C 461.205,290.265 461.539,288.265 462.5,286.5C 463.833,284.833 463.833,283.167 462.5,281.5C 462.379,272.293 463.046,263.293 464.5,254.5C 464.201,246.604 464.868,238.937 466.5,231.5C 467.507,233.477 467.507,233.143 466.5,230.5C 466.183,226.298 466.517,222.298 467.5,218.5C 467.5,217.833 467.833,217.5 468.5,217.5C 469.833,217.167 469.833,216.833 468.5,216.5C 468.328,215.508 468.662,214.842 469.5,214.5C 470.206,215.557 470.539,215.224 470.5,213.5C 471.167,213.5 471.833,213.5 472.5,213.5C 472.842,214.338 473.508,214.672 474.5,214.5C 476.426,216.293 478.759,217.293 481.5,217.5C 478.794,249.172 475.961,280.839 473,312.5C 463.115,399.38 415.615,452.547 330.5,472C 270.695,484.191 211.361,482.191 152.5,466C 83.0479,442.882 37.5479,396.382 16,326.5C 1.09596,264.495 9.42929,205.828 41,150.5C 56.3137,125.687 76.147,105.354 100.5,89.5 Z"/></g>
<g><path style="opacity:1" fill="#18428d" d="M 356.5,242.5 C 357.659,253.993 357.826,265.659 357,277.5C 355.559,278.87 353.892,279.87 352,280.5C 339.409,304.057 320.576,320.557 295.5,330C 296.252,330.671 296.586,331.504 296.5,332.5C 293.124,328.416 290.791,323.749 289.5,318.5C 290.161,317.282 290.828,315.949 291.5,314.5C 308.369,306.796 322.036,295.296 332.5,280C 334.78,279.767 336.78,278.934 338.5,277.5C 339.448,272.565 339.781,267.565 339.5,262.5C 342.833,262.5 346.167,262.5 349.5,262.5C 349.166,267.607 349.499,271.94 350.5,275.5C 352.023,277.51 353.856,277.844 356,276.5C 356.5,265.172 356.667,253.838 356.5,242.5 Z"/></g>
<g><path style="opacity:1" fill="#eceff9" d="M 222.5,266.5 C 218.731,266.756 215.064,266.423 211.5,265.5C 211.297,263.61 211.963,262.11 213.5,261C 216.882,260.176 220.216,260.343 223.5,261.5C 225.009,263.62 224.676,265.287 222.5,266.5 Z"/></g>
<g><path style="opacity:1" fill="#7e9ad2" d="M 304.5,246.5 C 307.167,246.5 309.833,246.5 312.5,246.5C 312.5,256.167 312.5,265.833 312.5,275.5C 311.506,266.348 311.173,257.015 311.5,247.5C 308.941,247.802 306.607,247.468 304.5,246.5 Z"/></g>
<g><path style="opacity:1" fill="#f2f4f6" d="M 395.5,240.5 C 398.119,240.232 400.619,240.565 403,241.5C 405.149,248.741 406.982,256.075 408.5,263.5C 409.935,256.491 411.435,249.491 413,242.5C 416,239.833 419,239.833 422,242.5C 422.667,253.833 422.667,265.167 422,276.5C 419.978,277.991 418.312,277.658 417,275.5C 416.667,268.5 416.333,261.5 416,254.5C 414.289,262.061 412.456,269.561 410.5,277C 408.299,277.825 406.466,277.325 405,275.5C 404.295,271.335 403.461,267.335 402.5,263.5C 402.326,261.139 401.993,258.806 401.5,256.5C 401.628,254.345 401.128,252.345 400,250.5C 399.5,258.827 399.334,267.16 399.5,275.5C 398.415,277.582 396.915,277.916 395,276.5C 394.189,264.424 394.355,252.424 395.5,240.5 Z"/></g>
<g><path style="opacity:1" fill="#637595" d="M 401.5,256.5 C 400.833,262.833 400.167,269.167 399.5,275.5C 399.334,267.16 399.5,258.827 400,250.5C 401.128,252.345 401.628,254.345 401.5,256.5 Z"/></g>
<g><path style="opacity:1" fill="#f0f2f9" d="M 326.5,240.5 C 327.301,242.042 327.634,243.708 327.5,245.5C 324.838,247.268 321.838,247.935 318.5,247.5C 318.666,256.839 318.5,266.173 318,275.5C 317.184,276.823 316.017,277.489 314.5,277.5C 313.5,277.167 312.833,276.5 312.5,275.5C 312.5,265.833 312.5,256.167 312.5,246.5C 309.833,246.5 307.167,246.5 304.5,246.5C 301.876,244.802 301.876,242.969 304.5,241C 311.826,240.5 319.159,240.334 326.5,240.5 Z"/></g>
<g><path style="opacity:1" fill="#f2f3f5" d="M 86.5,240.5 C 91.5111,240.334 96.5111,240.501 101.5,241C 103.624,242.122 105.457,243.622 107,245.5C 108.369,250.437 107.203,254.604 103.5,258C 107.48,259.478 109.146,262.312 108.5,266.5C 109.023,271.966 106.689,275.466 101.5,277C 96.5,277.667 91.5,277.667 86.5,277C 85.1772,276.184 84.5106,275.017 84.5,273.5C 84.3335,263.161 84.5002,252.828 85,242.5C 85.7172,241.956 86.2172,241.289 86.5,240.5 Z"/></g>
<g><path style="opacity:1" fill="#132852" d="M 90.5,261.5 C 93.8499,261.335 97.1832,261.502 100.5,262C 103.167,265 103.167,268 100.5,271C 97.1832,271.498 93.8499,271.665 90.5,271.5C 90.5,268.167 90.5,264.833 90.5,261.5 Z"/></g>
<g><path style="opacity:1" fill="#112752" d="M 90.5,246.5 C 93.5184,246.335 96.5184,246.502 99.5,247C 102.167,249.667 102.167,252.333 99.5,255C 96.5184,255.498 93.5184,255.665 90.5,255.5C 90.5,252.5 90.5,249.5 90.5,246.5 Z"/></g>
<g><path style="opacity:1" fill="#f2f3f7" d="M 382.5,251.5 C 384.356,258.255 386.523,264.921 389,271.5C 390.583,276.1 389.083,277.934 384.5,277C 383.347,274.384 382.347,271.718 381.5,269C 377.459,268.173 373.459,268.34 369.5,269.5C 368.754,270.736 368.421,272.07 368.5,273.5C 367.937,275.32 366.771,276.653 365,277.5C 363.053,276.956 362.22,275.623 362.5,273.5C 365.092,262.985 368.258,252.652 372,242.5C 373.466,240.675 375.299,240.175 377.5,241C 379.983,244.066 381.65,247.566 382.5,251.5 Z"/></g>
<g><path style="opacity:1" fill="#182f6f" d="M 374.5,249.5 C 375.497,249.47 376.164,249.97 376.5,251C 377.314,254.913 378.314,258.746 379.5,262.5C 376.813,262.664 374.146,262.497 371.5,262C 372.942,257.946 373.942,253.779 374.5,249.5 Z"/></g>
<g><path style="opacity:1" fill="#f1f3f8" d="M 352.5,240.5 C 354.38,240.229 355.713,240.896 356.5,242.5C 356.667,253.838 356.5,265.172 356,276.5C 353.856,277.844 352.023,277.51 350.5,275.5C 350.5,270.833 350.5,266.167 350.5,261.5C 346.5,261.5 342.5,261.5 338.5,261.5C 338.666,266.179 338.499,270.845 338,275.5C 336.933,277.283 335.433,277.783 333.5,277C 332.167,265 332.167,253 333.5,241C 335.433,240.217 336.933,240.717 338,242.5C 338.499,246.486 338.666,250.486 338.5,254.5C 342.5,254.5 346.5,254.5 350.5,254.5C 350.334,250.486 350.501,246.486 351,242.5C 351.278,241.584 351.778,240.918 352.5,240.5 Z"/></g>
<g><path style="opacity:1" fill="#e6eaf7" d="M 293.5,240.5 C 295.39,240.297 296.89,240.963 298,242.5C 298.667,253.5 298.667,264.5 298,275.5C 296,278.167 294,278.167 292,275.5C 291.333,264.5 291.333,253.5 292,242.5C 292.717,241.956 293.217,241.289 293.5,240.5 Z"/></g>
<g><path style="opacity:1" fill="#f3f5fb" d="M 270.5,240.5 C 273.325,240.162 275.492,241.162 277,243.5C 280.202,252.772 283.202,262.105 286,271.5C 287.512,276.656 285.846,278.323 281,276.5C 280.548,273.851 279.714,271.351 278.5,269C 274.459,268.173 270.459,268.34 266.5,269.5C 265.811,271.444 265.311,273.444 265,275.5C 263.604,277.527 261.938,277.86 260,276.5C 259.454,273.101 259.787,269.768 261,266.5C 263.693,257.58 266.86,248.913 270.5,240.5 Z"/></g>
<g><path style="opacity:1" fill="#2951c2" d="M 271.5,249.5 C 272.497,249.47 273.164,249.97 273.5,251C 274.894,254.745 275.894,258.578 276.5,262.5C 273.753,262.813 271.086,262.48 268.5,261.5C 269.915,257.591 270.915,253.591 271.5,249.5 Z"/></g>
<g><path style="opacity:1" fill="#ecf0f9" d="M 230.5,240.5 C 232.451,240.227 233.951,240.893 235,242.5C 235.499,246.486 235.666,250.486 235.5,254.5C 239.5,254.5 243.5,254.5 247.5,254.5C 247.334,250.486 247.501,246.486 248,242.5C 250,239.833 252,239.833 254,242.5C 254.667,253.5 254.667,264.5 254,275.5C 252,278.167 250,278.167 248,275.5C 247.501,270.845 247.334,266.179 247.5,261.5C 243.5,261.5 239.5,261.5 235.5,261.5C 235.666,266.179 235.499,270.845 235,275.5C 233.688,277.658 232.022,277.991 230,276.5C 229.189,264.424 229.355,252.424 230.5,240.5 Z"/></g>
<g><path style="opacity:1" fill="#f4f6fa" d="M 190.5,277.5 C 190.5,276.833 190.167,276.5 189.5,276.5C 188.176,264.667 188.176,252.833 189.5,241C 191.112,240.28 192.612,240.446 194,241.5C 194.5,251.494 194.666,261.494 194.5,271.5C 199.179,271.334 203.845,271.501 208.5,272C 209.554,273.388 209.72,274.888 209,276.5C 202.924,277.476 196.758,277.81 190.5,277.5 Z"/></g>
<g><path style="opacity:1" fill="#f2f4f9" d="M 171.5,240.5 C 172.79,241.058 173.623,242.058 174,243.5C 176.714,252.595 179.714,261.595 183,270.5C 183.667,272.5 183.667,274.5 183,276.5C 182.275,277.059 181.442,277.392 180.5,277.5C 177.644,275.297 176.311,272.297 176.5,268.5C 172.167,268.5 167.833,268.5 163.5,268.5C 163.5,269.5 163.5,270.5 163.5,271.5C 162.262,273.214 161.595,275.214 161.5,277.5C 157.5,278.167 155.833,276.5 156.5,272.5C 159.66,262.535 162.827,252.535 166,242.5C 167.444,240.845 169.278,240.178 171.5,240.5 Z"/></g>
<g><path style="opacity:1" fill="#213d91" d="M 168.5,249.5 C 171.495,253.126 173.162,257.459 173.5,262.5C 171.167,262.5 168.833,262.5 166.5,262.5C 167.465,258.227 168.131,253.894 168.5,249.5 Z"/></g>
<g><path style="opacity:1" fill="#fafbfc" d="M 132.5,262.5 C 132.783,263.289 133.283,263.956 134,264.5C 134.333,256.833 134.667,249.167 135,241.5C 136.333,240.167 137.667,240.167 139,241.5C 139.5,252.828 139.667,264.162 139.5,275.5C 137.46,278.134 135.293,278.134 133,275.5C 129,268.167 125,260.833 121,253.5C 120.667,261.167 120.333,268.833 120,276.5C 118.667,277.833 117.333,277.833 116,276.5C 115.179,264.591 115.346,252.757 116.5,241C 117.833,240.333 119.167,240.333 120.5,241C 125.129,247.801 129.129,254.968 132.5,262.5 Z"/></g>
<g><path style="opacity:1" fill="#e3e5ea" d="M 72.5,240.5 C 74.3904,240.297 75.8904,240.963 77,242.5C 77.6667,253.5 77.6667,264.5 77,275.5C 75,278.167 73,278.167 71,275.5C 70.3333,264.5 70.3333,253.5 71,242.5C 71.7172,241.956 72.2172,241.289 72.5,240.5 Z"/></g>
<g><path style="opacity:1" fill="#183d80" d="M 130.5,236.5 C 136.833,236.5 143.167,236.5 149.5,236.5C 150.6,248.871 152.933,260.871 156.5,272.5C 155.833,276.5 157.5,278.167 161.5,277.5C 161.595,275.214 162.262,273.214 163.5,271.5C 164.11,273.85 164.444,273.517 164.5,270.5C 166.144,270.286 167.644,270.62 169,271.5C 171.034,274.706 172.867,278.04 174.5,281.5C 165.525,282.498 156.525,282.832 147.5,282.5C 145.967,277.092 144.134,271.759 142,266.5C 141.667,258.5 141.333,250.5 141,242.5C 140.83,253.674 140.33,264.674 139.5,275.5C 139.667,264.162 139.5,252.828 139,241.5C 137.667,240.167 136.333,240.167 135,241.5C 134.667,249.167 134.333,256.833 134,264.5C 133.283,263.956 132.783,263.289 132.5,262.5C 133.654,256.013 133.821,249.346 133,242.5C 132.667,245.167 132.333,247.833 132,250.5C 131.171,245.863 130.671,241.196 130.5,236.5 Z"/></g>
<g><path style="opacity:1" fill="#6a7753" d="M 161.5,232.5 C 162.404,233.209 162.737,234.209 162.5,235.5C 149.5,235.5 136.5,235.5 123.5,235.5C 123.5,235.167 123.5,234.833 123.5,234.5C 136.544,235.147 149.211,234.48 161.5,232.5 Z"/></g>
<g><path style="opacity:1" fill="#163168" d="M 408.5,236.5 C 408.019,239.522 407.353,242.522 406.5,245.5C 404.703,239.655 401.036,237.989 395.5,240.5C 394.355,252.424 394.189,264.424 395,276.5C 396.915,277.916 398.415,277.582 399.5,275.5C 400.167,269.167 400.833,262.833 401.5,256.5C 401.993,258.806 402.326,261.139 402.5,263.5C 401.965,267.819 401.465,272.152 401,276.5C 400.55,278.519 399.717,280.352 398.5,282C 407.833,282.333 417.167,282.667 426.5,283C 411.328,283.169 396.328,283.669 381.5,284.5C 383.081,301.814 379.914,318.147 372,333.5C 364.403,341.931 354.903,346.764 343.5,348C 331.595,349.622 320.262,348.122 309.5,343.5C 309.938,343.565 310.272,343.399 310.5,343C 308.833,342 307.167,341 305.5,340C 335.895,326.121 356.895,303.954 368.5,273.5C 368.421,272.07 368.754,270.736 369.5,269.5C 373.459,268.34 377.459,268.173 381.5,269C 382.347,271.718 383.347,274.384 384.5,277C 389.083,277.934 390.583,276.1 389,271.5C 386.523,264.921 384.356,258.255 382.5,251.5C 382.87,246.754 383.204,241.754 383.5,236.5C 391.833,236.5 400.167,236.5 408.5,236.5 Z"/></g>
<g><path style="opacity:1" fill="#fddc03" d="M 175.5,284.5 C 176.498,291.158 177.498,291.158 178.5,284.5C 191.833,284.5 205.167,284.5 218.5,284.5C 217.207,287.679 216.54,291.012 216.5,294.5C 213.627,302.174 211.627,310.174 210.5,318.5C 208.03,326.702 205.697,335.035 203.5,343.5C 202.192,348.456 200.025,353.123 197,357.5C 194.044,360.722 190.544,363.056 186.5,364.5C 177.747,366.519 169.414,365.519 161.5,361.5C 155.845,355.193 152.012,347.859 150,339.5C 145.802,321.373 141.302,303.373 136.5,285.5C 149.483,284.501 162.483,284.168 175.5,284.5 Z"/></g>
<g><path style="opacity:1" fill="#fddc02" d="M 286.5,284.5 C 286.46,292.187 286.793,299.854 287.5,307.5C 288.273,311.14 288.94,314.807 289.5,318.5C 290.791,323.749 293.124,328.416 296.5,332.5C 299.413,337.798 303.747,341.464 309.5,343.5C 320.262,348.122 331.595,349.622 343.5,348C 354.903,346.764 364.403,341.931 372,333.5C 379.914,318.147 383.081,301.814 381.5,284.5C 396.5,284.5 411.5,284.5 426.5,284.5C 426.666,291.508 426.5,298.508 426,305.5C 424.986,342.59 407.153,367.256 372.5,379.5C 357.372,382.933 342.039,384.266 326.5,383.5C 316.647,383.394 306.98,382.06 297.5,379.5C 283.221,375.862 270.887,368.862 260.5,358.5C 253.899,349.298 248.899,339.298 245.5,328.5C 244.064,319.884 243.064,311.217 242.5,302.5C 242.5,296.5 242.5,290.5 242.5,284.5C 257.167,284.5 271.833,284.5 286.5,284.5 Z"/></g>
<g><path style="opacity:1" fill="#fddd00" d="M 112.5,284.5 C 112.5,306.167 112.5,327.833 112.5,349.5C 111.326,350.514 110.66,351.847 110.5,353.5C 109.381,356.888 107.381,359.721 104.5,362C 88.8416,369.787 78.0082,365.621 72,349.5C 71.5,327.836 71.3334,306.169 71.5,284.5C 85.1667,284.5 98.8333,284.5 112.5,284.5 Z"/></g>
<g><path style="opacity:1" fill="#80896a" d="M 286.5,284.5 C 271.833,284.5 257.167,284.5 242.5,284.5C 242.5,290.5 242.5,296.5 242.5,302.5C 242.167,302.5 241.833,302.5 241.5,302.5C 241.5,296.167 241.5,289.833 241.5,283.5C 256.676,283.171 271.676,283.504 286.5,284.5 Z"/></g>
<g><path style="opacity:1" fill="#142b55" d="M 161.5,361.5 C 169.414,365.519 177.747,366.519 186.5,364.5C 218.849,381.251 252.515,385.584 287.5,377.5C 290.172,378.503 292.838,379.503 295.5,380.5C 296.416,380.457 297.083,380.124 297.5,379.5C 306.98,382.06 316.647,383.394 326.5,383.5C 331.985,384.327 337.652,384.827 343.5,385C 339.833,385.333 336.167,385.667 332.5,386C 271.786,413.037 213.453,408.704 157.5,373C 140.945,360.944 126.611,346.777 114.5,330.5C 114.334,322.493 114.5,314.493 115,306.5C 117.935,312.427 121.268,318.094 125,323.5C 136.05,338.034 148.216,350.701 161.5,361.5 Z"/></g>
<g><path style="opacity:1" fill="#1b4498" d="M 240.5,300.5 C 240.343,301.873 240.51,303.207 241,304.5C 241.464,303.906 241.631,303.239 241.5,302.5C 241.833,302.5 242.167,302.5 242.5,302.5C 243.064,311.217 244.064,319.884 245.5,328.5C 245.565,328.938 245.399,329.272 245,329.5C 244.691,328.234 244.191,327.067 243.5,326C 232.42,324.065 221.753,320.899 211.5,316.5C 211.754,318.401 211.42,319.067 210.5,318.5C 211.627,310.174 213.627,302.174 216.5,294.5C 216.435,294.938 216.601,295.272 217,295.5C 217.196,293.714 218.029,292.381 219.5,291.5C 225.893,295.855 232.893,298.855 240.5,300.5 Z"/></g>
<g><path style="opacity:1" fill="#142a4d" d="M 114.5,330.5 C 126.611,346.777 140.945,360.944 157.5,373C 213.453,408.704 271.786,413.037 332.5,386C 336.167,385.667 339.833,385.333 343.5,385C 337.652,384.827 331.985,384.327 326.5,383.5C 342.039,384.266 357.372,382.933 372.5,379.5C 372.703,381.39 372.037,382.89 370.5,384C 352.453,397.69 332.453,407.69 310.5,414C 234.377,434.393 168.877,416.56 114,360.5C 112.384,358.287 111.217,355.953 110.5,353.5C 110.66,351.847 111.326,350.514 112.5,349.5C 113.29,348.391 113.79,347.058 114,345.5C 114.499,340.511 114.666,335.511 114.5,330.5 Z"/></g>
<g><path style="opacity:1" fill="#153a7a" d="M 245.5,328.5 C 248.899,339.298 253.899,349.298 260.5,358.5C 258.762,356.574 256.596,356.241 254,357.5C 237.564,356.68 221.73,353.18 206.5,347C 204.574,346.578 203.574,345.411 203.5,343.5C 205.697,335.035 208.03,326.702 210.5,318.5C 211.42,319.067 211.754,318.401 211.5,316.5C 221.753,320.899 232.42,324.065 243.5,326C 244.191,327.067 244.691,328.234 245,329.5C 245.399,329.272 245.565,328.938 245.5,328.5 Z"/></g>
<g><path style="opacity:1" fill="#143063" d="M 203.5,343.5 C 203.574,345.411 204.574,346.578 206.5,347C 221.73,353.18 237.564,356.68 254,357.5C 256.596,356.241 258.762,356.574 260.5,358.5C 270.887,368.862 283.221,375.862 297.5,379.5C 297.083,380.124 296.416,380.457 295.5,380.5C 292.838,379.503 290.172,378.503 287.5,377.5C 252.515,385.584 218.849,381.251 186.5,364.5C 190.544,363.056 194.044,360.722 197,357.5C 200.025,353.123 202.192,348.456 203.5,343.5 Z"/></g>
</svg>
